<?xml version="1.0" encoding="utf-8"?>
<!-- Generator: Adobe Illustrator 22.1.0, SVG Export Plug-In . SVG Version: 6.00 Build 0)  -->
<svg version="1.1" id="Layer_1" xmlns="http://www.w3.org/2000/svg" xmlns:xlink="http://www.w3.org/1999/xlink" x="0px" y="0px"
	 viewBox="0 0 400 400" style="enable-background:new 0 0 400 400;" xml:space="preserve">
<style type="text/css">
	.st0{fill:#231F20;}
</style>
<g>
	<g>
		<path class="st0" d="M328.8,359.3H72.2c-39.5,0-71.7-32.2-71.7-71.7V106.4c0-39.5,32.2-71.7,71.7-71.7h256.6
			c39.5,0,71.7,32.2,71.7,71.7v181.1C400.5,327.1,368.3,359.3,328.8,359.3z M72.2,57.4c-27,0-49.1,22-49.1,49.1v181.1
			c0,27,22,49.1,49.1,49.1h256.6c27,0,49.1-22,49.1-49.1V106.4c0-27-22-49.1-49.1-49.1H72.2z"/>
	</g>
	<g>
		<rect x="11.8" y="98.9" class="st0" width="377.4" height="52.8"/>
	</g>
	<g>
		<path class="st0" d="M328.8,217.8h-50.7c-3.1,0-5.7-2.5-5.7-5.7s2.5-5.7,5.7-5.7h50.7c3.1,0,5.7,2.5,5.7,5.7
			S331.9,217.8,328.8,217.8z"/>
	</g>
	<g>
		<path class="st0" d="M328.8,270.6H185.4c-3.1,0-5.7-2.5-5.7-5.7s2.5-5.7,5.7-5.7h143.4c3.1,0,5.7,2.5,5.7,5.7
			S331.9,270.6,328.8,270.6z"/>
	</g>
	<g>
		<path class="st0" d="M136.3,270.6H64.7c-3.1,0-5.7-2.5-5.7-5.7s2.5-5.7,5.7-5.7h71.7c3.1,0,5.7,2.5,5.7,5.7
			S139.5,270.6,136.3,270.6z"/>
	</g>
	<g>
		<path class="st0" d="M254.9,217.8h-48c-3.1,0-5.7-2.5-5.7-5.7s2.5-5.7,5.7-5.7h48c3.1,0,5.7,2.5,5.7,5.7S258.1,217.8,254.9,217.8z
			"/>
	</g>
	<g>
		<path class="st0" d="M187.8,217.8h-52c-3.1,0-5.7-2.5-5.7-5.7s2.5-5.7,5.7-5.7h52c3.1,0,5.7,2.5,5.7,5.7S190.9,217.8,187.8,217.8z
			"/>
	</g>
	<g>
		<path class="st0" d="M113.9,217.8H64.7c-3.1,0-5.7-2.5-5.7-5.7s2.5-5.7,5.7-5.7h49.2c3.1,0,5.7,2.5,5.7,5.7S117,217.8,113.9,217.8
			z"/>
	</g>
</g>
</svg>
