<?xml version="1.0" encoding="utf-8"?>
<!-- Generator: Adobe Illustrator 22.1.0, SVG Export Plug-In . SVG Version: 6.00 Build 0)  -->
<svg version="1.1" id="Layer_1" xmlns="http://www.w3.org/2000/svg" xmlns:xlink="http://www.w3.org/1999/xlink" x="0px" y="0px"
	 viewBox="0 0 400 400" style="enable-background:new 0 0 400 400;" xml:space="preserve">
<style type="text/css">
	.st0{fill:#231F20;}
</style>
<g>
	<path class="st0" d="M200,400.9c-23.7,0-42.9-19.3-42.9-42.9h23.4c0,10.8,8.8,19.5,19.5,19.5s19.5-8.8,19.5-19.5h23.4
		C242.9,381.7,223.7,400.9,200,400.9z"/>
</g>
<g>
	<path class="st0" d="M200,75.1c-20.4,0-37.1-16.6-37.1-37.1S179.6,0.9,200,0.9s37.1,16.6,37.1,37.1S220.4,75.1,200,75.1z M200,12.6
		c-14,0-25.4,11.4-25.4,25.4S186,63.4,200,63.4S225.4,52,225.4,38S214,12.6,200,12.6z"/>
</g>
<g>
	<path class="st0" d="M356.1,346.3H43.9c-6.5,0-11.7-5.2-11.7-11.7v-39c0-6.5,5.2-11.7,11.7-11.7c19.4,0,35.1-15.8,35.1-35.1v-62.4
		c0-33,13-63.8,36.7-86.8c22.8-22.1,52.5-34.2,84.2-34.2c0,0,0.1,0,0.1,0c31.6,0,61.4,12,84.2,34.2c23.7,23,36.7,53.8,36.7,86.8
		v62.4c0,19.4,15.8,35.1,35.1,35.1c6.5,0,11.7,5.2,11.7,11.7v39C367.8,341.1,362.6,346.3,356.1,346.3z M55.6,322.9h288.8v-16.8
		c-26.7-5.4-46.8-29.1-46.8-57.4v-62.4c0-26.6-10.5-51.5-29.6-70c-17.6-17.1-40.4-26.7-64.8-27.5c-0.1,0-0.1,0-0.2,0
		c-2-0.1-4-0.1-6,0c-0.1,0-0.1,0-0.2,0c-24.4,0.8-47.1,10.4-64.8,27.5c-19.1,18.5-29.6,43.4-29.6,70v62.4
		c0,28.3-20.1,51.9-46.8,57.4V322.9z"/>
</g>
</svg>
