<?xml version="1.0" encoding="utf-8"?>
<!-- Generator: Adobe Illustrator 22.1.0, SVG Export Plug-In . SVG Version: 6.00 Build 0)  -->
<svg version="1.1" id="Layer_1" xmlns="http://www.w3.org/2000/svg" xmlns:xlink="http://www.w3.org/1999/xlink" x="0px" y="0px"
	 viewBox="0 0 400 400" style="enable-background:new 0 0 400 400;" xml:space="preserve">
<g>
	<g>
		<g>
			<path d="M200,0C128.3,0,70,59.8,70,133.3c0,22.1,5.4,44,15.6,63.4l107.3,199c1.4,2.7,4.1,4.3,7.1,4.3c3,0,5.7-1.6,7.1-4.3
				l107.3-199.1c10.2-19.3,15.6-41.2,15.6-63.3C330,59.8,271.7,0,200,0z M200,200c-35.8,0-65-29.9-65-66.7s29.2-66.7,65-66.7
				s65,29.9,65,66.7S235.8,200,200,200z"/>
		</g>
	</g>
</g>
</svg>
