<?xml version="1.0" encoding="utf-8"?>
<!-- Generator: Adobe Illustrator 22.1.0, SVG Export Plug-In . SVG Version: 6.00 Build 0)  -->
<svg version="1.1" id="Layer_1" xmlns="http://www.w3.org/2000/svg" xmlns:xlink="http://www.w3.org/1999/xlink" x="0px" y="0px"
	 viewBox="0 0 400 400" style="enable-background:new 0 0 400 400;" xml:space="preserve">
<style type="text/css">
	.st0{fill:#231F20;}
</style>
<g>
	<g>
		<path class="st0" d="M145.5,400c-37.3,0-74.6-14.2-102.9-42.6c-56.8-56.8-56.8-149.1,0-205.8c56.8-56.7,149.1-56.8,205.9,0
			c27.5,27.5,42.6,64,42.6,102.9c0,38.9-15.1,75.4-42.6,102.9C220,385.8,182.8,400,145.5,400z M145.5,154.1
			c-25.7,0-51.5,9.8-71.1,29.4c-39.2,39.2-39.2,102.9,0,142.1c39.2,39.2,102.9,39.2,142.1,0l0,0c19-19,29.4-44.2,29.4-71
			c0-26.8-10.5-52.1-29.4-71.1C197,163.9,171.2,154.1,145.5,154.1z"/>
	</g>
	<g>
		<path class="st0" d="M232.5,190.1c-5.8,0-11.5-2.2-15.9-6.6c-8.8-8.8-8.8-23.1,0-31.9l145-145c8.8-8.8,23.1-8.8,31.9,0
			s8.8,23.1,0,31.9l-145,145C244,187.9,238.2,190.1,232.5,190.1z"/>
	</g>
	<g>
		<path class="st0" d="M377.5,190.1c-12.4,0-22.5-10.1-22.5-22.5V45.1H232.5c-12.4,0-22.5-10.1-22.5-22.5S220,0,232.5,0h145
			C389.9,0,400,10.1,400,22.5v145C400,180,389.9,190.1,377.5,190.1z"/>
	</g>
</g>
</svg>
