<?xml version="1.0" encoding="utf-8"?>
<!-- Generator: Adobe Illustrator 22.1.0, SVG Export Plug-In . SVG Version: 6.00 Build 0)  -->
<svg version="1.1" id="Layer_1" xmlns="http://www.w3.org/2000/svg" xmlns:xlink="http://www.w3.org/1999/xlink" x="0px" y="0px"
	 viewBox="0 0 400 400" style="enable-background:new 0 0 400 400;" xml:space="preserve">
<style type="text/css">
	.st0{fill:#231F20;}
</style>
<g>
	<g>
		<path class="st0" d="M200,234.7c-64.7,0-117.4-52.6-117.4-117.4S135.3,0,200,0s117.4,52.6,117.4,117.4S264.7,234.7,200,234.7z
			 M200,36.4c-44.7,0-81,36.3-81,81s36.3,81,81,81s81-36.3,81-81S244.7,36.4,200,36.4z"/>
	</g>
	<g>
		<path class="st0" d="M200,400c-10,0-18.2-8.1-18.2-18.2V216.5c0-10,8.1-18.2,18.2-18.2s18.2,8.1,18.2,18.2v165.3
			C218.2,391.9,210,400,200,400z"/>
	</g>
	<g>
		<path class="st0" d="M258.4,339.3H137.2c-10,0-18.2-8.1-18.2-18.2s8.1-18.2,18.2-18.2h121.2c10,0,18.2,8.1,18.2,18.2
			S268.4,339.3,258.4,339.3z"/>
	</g>
</g>
</svg>
