<?xml version="1.0" encoding="utf-8"?>
<!-- Generator: Adobe Illustrator 22.1.0, SVG Export Plug-In . SVG Version: 6.00 Build 0)  -->
<svg version="1.1" id="Layer_1" xmlns="http://www.w3.org/2000/svg" xmlns:xlink="http://www.w3.org/1999/xlink" x="0px" y="0px"
	 viewBox="0 0 400 400" style="enable-background:new 0 0 400 400;" xml:space="preserve">
<style type="text/css">
	.st0{fill:#231F20;}
</style>
<g>
	<g>
		<path class="st0" d="M335.3,400H64.7c-6.6,0-11.9-5.3-11.9-11.9V77.6c0-6.6,5.3-11.9,11.9-11.9h270.6c6.6,0,11.9,5.3,11.9,11.9
			v310.4C347.3,394.7,341.9,400,335.3,400z M76.6,376.1h246.8V89.6H76.6V376.1z"/>
	</g>
	<g>
		<path class="st0" d="M208,314.4h-79.6c-3.3,0-6-2.7-6-6s2.7-6,6-6H208c3.3,0,6,2.7,6,6S211.3,314.4,208,314.4z"/>
	</g>
	<g>
		<path class="st0" d="M208,242.8h-79.6c-3.3,0-6-2.7-6-6s2.7-6,6-6H208c3.3,0,6,2.7,6,6S211.3,242.8,208,242.8z"/>
	</g>
	<g>
		<path class="st0" d="M208,171.1h-79.6c-3.3,0-6-2.7-6-6s2.7-6,6-6H208c3.3,0,6,2.7,6,6S211.3,171.1,208,171.1z"/>
	</g>
	<g>
		<path class="st0" d="M255.7,330.3c-12.1,0-21.9-9.8-21.9-21.9c0-12.1,9.8-21.9,21.9-21.9c12.1,0,21.9,9.8,21.9,21.9
			C277.6,320.5,267.8,330.3,255.7,330.3z M255.7,298.5c-5.5,0-10,4.5-10,10s4.5,10,10,10s10-4.5,10-10S261.2,298.5,255.7,298.5z"/>
	</g>
	<g>
		<path class="st0" d="M255.7,258.7c-12.1,0-21.9-9.8-21.9-21.9c0-12.1,9.8-21.9,21.9-21.9c12.1,0,21.9,9.8,21.9,21.9
			C277.6,248.9,267.8,258.7,255.7,258.7z M255.7,226.9c-5.5,0-10,4.5-10,10c0,5.5,4.5,10,10,10s10-4.5,10-10
			C265.7,231.3,261.2,226.9,255.7,226.9z"/>
	</g>
	<g>
		<path class="st0" d="M255.7,187.1c-12.1,0-21.9-9.8-21.9-21.9c0-12.1,9.8-21.9,21.9-21.9c12.1,0,21.9,9.8,21.9,21.9
			C277.6,177.2,267.8,187.1,255.7,187.1z M255.7,155.2c-5.5,0-10,4.5-10,10c0,5.5,4.5,10,10,10s10-4.5,10-10
			C265.7,159.7,261.2,155.2,255.7,155.2z"/>
	</g>
	<g>
		<path class="st0" d="M231.8,86.4c-3.3,0-6-2.7-6-6V37.8c0-14.3-11.6-25.9-25.9-25.9s-25.9,11.6-25.9,25.9v42.7c0,3.3-2.7,6-6,6
			s-6-2.7-6-6V37.8C162.2,17,179.2,0,200,0s37.8,17,37.8,37.8v42.7C237.8,83.8,235.1,86.4,231.8,86.4z"/>
	</g>
	<g>
		<rect x="120.4" y="53.7" class="st0" width="159.2" height="47.8"/>
	</g>
</g>
</svg>
