<?xml version="1.0" encoding="utf-8"?>
<!-- Generator: Adobe Illustrator 22.1.0, SVG Export Plug-In . SVG Version: 6.00 Build 0)  -->
<svg version="1.1" id="Layer_1" xmlns="http://www.w3.org/2000/svg" xmlns:xlink="http://www.w3.org/1999/xlink" x="0px" y="0px"
	 viewBox="0 0 400 400" style="enable-background:new 0 0 400 400;" xml:space="preserve">
<g>
	<g>
		<g>
			<g>
				<path d="M33,217.3c-1.7,0-3.4-0.2-5-0.5c-1.7-0.3-3.2-0.9-4.8-1.4c-1.5-0.7-3.1-1.5-4.4-2.4c-1.4-1-2.7-2.1-3.9-3.2
					c-4.8-4.8-7.5-11.3-7.5-18.1c0-6.8,2.7-13.3,7.5-18.1c1.2-1.2,2.6-2.2,3.9-3.2c1.4-0.9,2.9-1.7,4.4-2.2c1.5-0.7,3.1-1.2,4.8-1.5
					c8.2-1.7,17.1,1,23,7c4.8,4.8,7.5,11.4,7.5,18.1c0,6.7-2.7,13.3-7.5,18.1C46.3,214.6,39.6,217.3,33,217.3z"/>
			</g>
		</g>
		<g>
			<g>
				<path d="M50.6,112c-11.4-8.4-14-24.2-5.6-35.7l0,0c8.4-11.4,24.2-14,35.7-5.6l0,0c11.4,8.2,14,24.2,5.8,35.7l0,0
					c-5.1,6.8-13,10.6-20.8,10.6l0,0C60.3,116.9,55.2,115.2,50.6,112z M321.1,106.4c-8.4-11.4-6-27.5,5.5-35.7l0,0
					c11.4-8.4,27.5-6,35.8,5.5l0,0c8.4,11.4,5.8,27.5-5.6,35.8l0,0c-4.6,3.3-9.7,5-15,5l0,0C333.9,116.9,326.1,113.2,321.1,106.4z
					 M248.6,53.6c-13.5-4.3-20.8-18.8-16.6-32.3l0,0C236.5,8,250.8,0.5,264.3,5l0,0c13.5,4.4,20.8,18.8,16.6,32.3l0,0
					C277.3,48,267.2,55,256.4,55l0,0C253.9,55,251.1,54.5,248.6,53.6z M126.5,37.2c-4.3-13.5,3.1-27.8,16.6-32.3l0,0
					c13.3-4.4,27.8,3.1,32.3,16.4l0,0c4.3,13.5-3.1,28-16.6,32.3l0,0c-2.6,0.9-5.3,1.4-7.9,1.4l0,0C140.2,55,130.1,48,126.5,37.2z"
					/>
			</g>
		</g>
		<g>
			<g>
				<path d="M374.4,217.3c-6.8,0-13.3-2.7-18.1-7.5c-4.8-4.8-7.5-11.3-7.5-18.1c0-6.8,2.7-13.3,7.5-18.1c9.6-9.6,26.6-9.6,36.2,0
					c4.8,4.8,7.5,11.3,7.5,18.1c0,6.8-2.7,13.3-7.5,18.1C387.7,214.6,381.2,217.3,374.4,217.3z"/>
			</g>
		</g>
	</g>
	<g>
		<path d="M302.8,217c2.1-8.1,3.3-16.5,3.3-25.3c0-56.6-45.9-102.4-102.4-102.4s-102.4,45.9-102.4,102.4c0,8.7,1.2,17.2,3.3,25.3
			H302.8z"/>
	</g>
	<g>
		<g>
			<path d="M388.1,304.8H9.5c-5.2,0-9.5-4.2-9.5-9.5s4.2-9.5,9.5-9.5h378.6c5.2,0,9.5,4.2,9.5,9.5S393.3,304.8,388.1,304.8z"/>
		</g>
	</g>
	<g>
		<g>
			<path d="M354.8,396.3H56.1c-5.2,0-9.5-4.2-9.5-9.5s4.2-9.5,9.5-9.5h298.7c5.2,0,9.5,4.2,9.5,9.5S360.1,396.3,354.8,396.3z"/>
		</g>
	</g>
</g>
</svg>
