<?xml version="1.0" encoding="utf-8"?>
<!-- Generator: Adobe Illustrator 22.1.0, SVG Export Plug-In . SVG Version: 6.00 Build 0)  -->
<svg version="1.1" id="Layer_1" xmlns="http://www.w3.org/2000/svg" xmlns:xlink="http://www.w3.org/1999/xlink" x="0px" y="0px"
	 viewBox="0 0 400 400" style="enable-background:new 0 0 400 400;" xml:space="preserve">
<style type="text/css">
	.st0{fill:#231F20;}
</style>
<g>
	<g>
		<path class="st0" d="M270.7,400H37.2c-7.7,0-14-6.2-14-14V14c0-7.7,6.2-14,14-14h325.5c7.7,0,14,6.2,14,14v282.6
			c0,3.8-1.5,7.4-4.2,10l-92.1,89.5C277.8,398.6,274.3,400,270.7,400z M51.2,372.1H265l83.8-81.4V27.9H51.2V372.1z M362.8,296.6h0.2
			H362.8z"/>
	</g>
	<g>
		<path class="st0" d="M268.1,400c-7.7,0-14-6.2-14-14v-89.5c0-7.7,6.2-14,14-14h94.6c7.7,0,14,6.2,14,14c0,7.7-6.2,14-14,14h-80.7
			V386C282.1,393.8,275.8,400,268.1,400z"/>
	</g>
	<g>
		<path class="st0" d="M232.6,113.9H111.1c-3.9,0-7-3.1-7-7c0-3.9,3.1-7,7-7h121.4c3.9,0,7,3.1,7,7
			C239.5,110.8,236.4,113.9,232.6,113.9z"/>
	</g>
	<g>
		<path class="st0" d="M232.6,179H111.1c-3.9,0-7-3.1-7-7c0-3.9,3.1-7,7-7h121.4c3.9,0,7,3.1,7,7C239.5,175.9,236.4,179,232.6,179z"
			/>
	</g>
</g>
</svg>
