<?xml version="1.0" encoding="utf-8"?>
<!-- Generator: Adobe Illustrator 22.1.0, SVG Export Plug-In . SVG Version: 6.00 Build 0)  -->
<svg version="1.1" id="Layer_1" xmlns="http://www.w3.org/2000/svg" xmlns:xlink="http://www.w3.org/1999/xlink" x="0px" y="0px"
	 viewBox="0 0 400 400" style="enable-background:new 0 0 400 400;" xml:space="preserve">
<style type="text/css">
	.st0{fill:#231F20;}
</style>
<g>
	<g>
		<path class="st0" d="M200,262.8c-34.6,0-62.8-28.2-62.8-62.8s28.2-62.8,62.8-62.8s62.8,28.2,62.8,62.8S234.6,262.8,200,262.8z
			 M200,151.2c-26.9,0-48.8,21.9-48.8,48.8s21.9,48.8,48.8,48.8s48.8-21.9,48.8-48.8S226.9,151.2,200,151.2z"/>
	</g>
	<g>
		<path class="st0" d="M209.3,400h-18.6c-18,0-32.6-14.6-32.6-32.6v-10.2c0-9.7-5.4-17.8-14.4-21.5c-9-3.7-18.5-1.8-25.3,5l-7.2,7.2
			c-12.7,12.7-33.3,12.7-46,0L52,334.8c-12.7-12.7-12.7-33.3,0-46l7.2-7.2c6.9-6.9,8.8-16.4,5-25.3c-3.7-9-11.8-14.4-21.5-14.4H32.6
			c-18,0-32.6-14.6-32.6-32.6v-18.6c0-18,14.6-32.6,32.6-32.6h10.2c9.7,0,17.8-5.4,21.5-14.4c3.7-9,1.8-18.5-5-25.3l-7.2-7.2
			c-12.7-12.7-12.7-33.3,0-46L65.2,52c12.7-12.7,33.4-12.7,46,0l7.2,7.2c6.9,6.9,16.4,8.8,25.3,5c9-3.7,14.4-11.8,14.4-21.5V32.6
			c0-18,14.6-32.6,32.6-32.6h18.6c18,0,32.6,14.6,32.6,32.6v10.2c0,9.7,5.4,17.8,14.4,21.5c9,3.7,18.5,1.8,25.3-5l7.2-7.2
			c12.7-12.7,33.4-12.7,46,0L348,65.2c12.7,12.7,12.7,33.3,0,46l-7.2,7.2c-6.9,6.9-8.8,16.4-5,25.3c3.7,9,11.8,14.4,21.5,14.4h10.2
			c18,0,32.6,14.6,32.6,32.6v18.6c0,18-14.6,32.6-32.6,32.6h-10.2c-9.7,0-17.8,5.4-21.5,14.4c-3.7,9-1.8,18.5,5,25.3l7.2,7.2
			c12.7,12.7,12.7,33.3,0,46L334.8,348c-12.7,12.7-33.3,12.7-46,0l-7.2-7.2c-6.9-6.9-16.4-8.8-25.3-5c-9,3.7-14.4,11.8-14.4,21.5
			v10.2C241.9,385.4,227.3,400,209.3,400z M134.6,305.9c6.6,0,13.4,1.3,19.9,4c19.5,8.1,31.6,26.2,31.6,47.3v10.2
			c0,2.6,2.1,4.7,4.7,4.7h18.6c2.6,0,4.7-2.1,4.7-4.7v-10.2c0-21.1,12.1-39.2,31.6-47.3c19.5-8,40.8-3.8,55.8,11.1l7.2,7.2
			c1.8,1.8,4.8,1.8,6.6,0l13.1-13.1c1.8-1.8,1.8-4.8,0-6.6l-7.2-7.2c-14.9-14.9-19.2-36.3-11.1-55.8c8.1-19.5,26.2-31.6,47.3-31.6
			h10.2c2.6,0,4.7-2.1,4.7-4.7v-18.6c0-2.6-2.1-4.7-4.7-4.7h-10.2c-21.1,0-39.2-12.1-47.3-31.6c-8.1-19.5-3.8-40.8,11.1-55.8
			l7.2-7.2c1.8-1.8,1.8-4.8,0-6.6l-13.2-13.1c-1.8-1.8-4.8-1.8-6.6,0l-7.2,7.2c-14.9,14.9-36.3,19.2-55.8,11.1
			C226.1,82,214,63.9,214,42.8V32.6c0-2.6-2.1-4.7-4.7-4.7h-18.6c-2.6,0-4.7,2.1-4.7,4.7v10.2c0,21.1-12.1,39.2-31.6,47.3
			C135,98.1,113.6,93.9,98.7,79l-7.2-7.2c-1.8-1.8-4.8-1.8-6.6,0L71.7,84.9c-1.8,1.8-1.8,4.8,0,6.6l7.2,7.2
			c14.9,14.9,19.2,36.3,11.1,55.8C82,173.9,63.9,186,42.8,186H32.6c-2.6,0-4.7,2.1-4.7,4.7v18.6c0,2.6,2.1,4.7,4.7,4.7h10.2
			c21.1,0,39.2,12.1,47.3,31.6c8.1,19.5,3.8,40.8-11.1,55.8l-7.2,7.2c-1.8,1.8-1.8,4.8,0,6.6l13.1,13.1c1.8,1.8,4.8,1.8,6.6,0
			l7.2-7.2C108.6,311.1,121.4,305.9,134.6,305.9z"/>
	</g>
</g>
</svg>
