<?xml version="1.0" encoding="utf-8"?>
<!-- Generator: Adobe Illustrator 22.1.0, SVG Export Plug-In . SVG Version: 6.00 Build 0)  -->
<svg version="1.1" id="Layer_1" xmlns="http://www.w3.org/2000/svg" xmlns:xlink="http://www.w3.org/1999/xlink" x="0px" y="0px"
	 viewBox="0 0 400 400" style="enable-background:new 0 0 400 400;" xml:space="preserve">
<style type="text/css">
	.st0{fill:#231F20;}
</style>
<g>
	<g>
		<g>
			<path class="st0" d="M281.9,140H118.1c-3.9,0-7-3.1-7-7s3.1-7,7-7h163.7c3.9,0,7,3.1,7,7S285.7,140,281.9,140z"/>
		</g>
		<g>
			<path class="st0" d="M281.9,207H118.1c-3.9,0-7-3.1-7-7s3.1-7,7-7h163.7c3.9,0,7,3.1,7,7S285.7,207,281.9,207z"/>
		</g>
		<g>
			<path class="st0" d="M281.9,274H118.1c-3.9,0-7-3.1-7-7c0-3.9,3.1-7,7-7h163.7c3.9,0,7,3.1,7,7C288.8,270.8,285.7,274,281.9,274z
				"/>
		</g>
	</g>
	<g>
		<path class="st0" d="M200,400c-40.2,0-78.9-11.9-112-34.3c-6.4-4.3-8-13-3.7-19.4c4.3-6.4,13-8,19.4-3.7
			c28.5,19.3,61.8,29.5,96.4,29.5c94.9,0,172.1-77.2,172.1-172.1S294.9,27.9,200,27.9S27.9,105.1,27.9,200
			c0,33.3,9.5,65.6,27.5,93.4c4.2,6.5,2.3,15.1-4.1,19.3c-6.5,4.2-15.1,2.3-19.3-4.1C11.1,276.2,0,238.7,0,200C0,89.7,89.7,0,200,0
			s200,89.7,200,200S310.3,400,200,400z"/>
	</g>
	<g>
		<path class="st0" d="M14,400c-3.6,0-7-1.4-9.7-3.9c-3.9-3.8-5.3-9.5-3.5-14.6l29.8-85.1c2.6-7.3,10.5-11.1,17.8-8.6
			c7.3,2.5,11.1,10.5,8.6,17.8L37.1,362l53.6-20.9c7.2-2.8,15.3,0.8,18.1,7.9c2.8,7.2-0.8,15.3-7.9,18.1L19,399
			C17.4,399.7,15.7,400,14,400z"/>
	</g>
</g>
</svg>
