<?xml version="1.0" encoding="utf-8"?>
<!-- Generator: Adobe Illustrator 22.1.0, SVG Export Plug-In . SVG Version: 6.00 Build 0)  -->
<svg version="1.1" id="Layer_1" xmlns="http://www.w3.org/2000/svg" xmlns:xlink="http://www.w3.org/1999/xlink" x="0px" y="0px"
	 viewBox="0 0 400 400" style="enable-background:new 0 0 400 400;" xml:space="preserve">
<style type="text/css">
	.st0{fill:#231F20;}
</style>
<path class="st0" d="M380,170h-11c-35.6,0-53.5-43.1-28.3-68.3l7.8-7.8c7.8-7.8,7.8-20.5,0-28.3l-14.1-14.1
	c-7.8-7.8-20.5-7.8-28.3,0l-7.8,7.8C273.1,84.5,230,66.6,230,31V20c0-11-9-20-20-20h-20c-11,0-20,9-20,20v11
	c0,35.6-43.1,53.5-68.3,28.3l-7.8-7.8c-7.8-7.8-20.5-7.8-28.3,0L51.5,65.6c-7.8,7.8-7.8,20.5,0,28.3l7.8,7.8
	C84.5,126.9,66.6,170,31,170H20c-11,0-20,9-20,20v20c0,11,9,20,20,20h11c35.6,0,53.5,43.1,28.3,68.3l-7.8,7.8
	c-7.8,7.8-7.8,20.5,0,28.3l14.1,14.1c7.8,7.8,20.5,7.8,28.3,0l7.8-7.8c25.2-25.2,68.3-7.4,68.3,28.3v11c0,11,9,20,20,20h20
	c11,0,20-9,20-20v-11c0-35.6,43.1-53.5,68.3-28.3l7.8,7.8c7.8,7.8,20.5,7.8,28.3,0l14.1-14.1c7.8-7.8,7.8-20.5,0-28.3l-7.8-7.8
	c-25.2-25.2-7.4-68.3,28.3-68.3h11c11,0,20-9,20-20v-20C400,179,391,170,380,170z M200,260c-33.1,0-60-26.9-60-60s26.9-60,60-60
	c33.1,0,60,26.9,60,60S233.1,260,200,260z"/>
</svg>
