<?xml version="1.0" encoding="utf-8"?>
<!-- Generator: Adobe Illustrator 22.1.0, SVG Export Plug-In . SVG Version: 6.00 Build 0)  -->
<svg version="1.1" id="Layer_1" xmlns="http://www.w3.org/2000/svg" xmlns:xlink="http://www.w3.org/1999/xlink" x="0px" y="0px"
	 viewBox="0 0 400 400" style="enable-background:new 0 0 400 400;" xml:space="preserve">
<style type="text/css">
	.st0{stroke:#231F20;stroke-miterlimit:10;}
</style>
<g>
	<path class="st0" d="M292.8,119.5c-3.1,0.2-6.2-0.9-8.4-3.1c-2.2-2.2-3.4-5.3-3.1-8.4c0.1-0.9-0.2-1.9-0.9-2.6
		c-0.6-0.7-1.5-1.1-2.4-1.2c-0.1,0-0.2,0-0.2,0c-1.8,0-3.4,1.4-3.5,3.3c-0.4,5.2,1.5,10.3,5.2,13.9c3.7,3.7,8.7,5.6,13.9,5.2
		c0.9-0.1,1.8-0.5,2.4-1.2c0.6-0.7,0.9-1.6,0.9-2.6C296.5,120.9,294.8,119.4,292.8,119.5z"/>
	<path class="st0" d="M316.5,129.5c-1.4,1.4-1.4,3.6,0,5s3.6,1.4,5,0c1.3-1.3,2.9-2,4.7-2c1.8,0,3.5,0.7,4.7,2c1.3,1.3,2,2.9,2,4.7
		c0,1.8-0.7,3.5-2,4.7c-1.4,1.4-1.4,3.6,0,5c1.3,1.3,3.7,1.3,5,0c2.6-2.6,4-6.1,4-9.7s-1.4-7.1-4-9.7
		C330.7,124.3,321.7,124.3,316.5,129.5z"/>
	<path class="st0" d="M390.6,166.5l-0.7-0.9l0.4-1.1c5.7-14.1,8.7-29,8.8-44.3c0.3-30.1-10.4-58.7-30.4-80.7l-1.3-1.5l1.5-1.4
		c6.3-5.9,13.9-10.3,22.2-12.7c2-0.6,3.2-2.7,2.6-4.8c-0.3-1-0.9-1.8-1.9-2.3c-0.9-0.5-2-0.6-2.9-0.3c-9.5,2.8-18.4,7.9-25.6,14.8
		l-1.4,1.3l-1.4-1.3C327.2,1.1,278.2-7.4,235.6,9.7l-1.1,0.4l-0.9-0.7C225.8,3.3,216.4,0,206.4,0l-0.7,0
		c-11.4,0.2-22.2,4.7-30.3,12.8c-13.6,13.6-16.8,34.1-8,51l1.6,3.2l-3.5-0.2c-0.4,0-0.8,0-1.2,0c-3,0-6,0.5-8.8,1.6
		c-26.3,9.9-64.6,35.7-87.4,59C56,139.8,49.6,157,50.6,174.4c0.3,5.2,0.8,11.1,1.5,17.4l0.1,1l-0.8,0.7
		c-15.3,14.2-29.3,32.3-38.4,49.7c-6,11.4-14.9,32.6-8.2,46.3l0.4,0.8l-0.2,1c-10.8,29.4-3.4,62.8,18.7,85
		C39,391.6,59.3,400,80.8,400c0,0,0,0,0,0c9.5,0,18.9-1.7,27.9-5l0.8-0.3l0.8,0.4c11.9,5.8,31.5,1,54-12.4c15-8.9,29.9-21,42.1-34.2
		l0.7-0.8l1,0.1c6.3,0.7,12.2,1.2,17.4,1.5c17.3,1,34.7-5.5,47.1-17.6c13.3-13,27.9-31.5,40-50.8c0.6-0.9,0.7-1.9,0.5-2.9
		c-0.2-1-0.8-1.9-1.7-2.4c-0.9-0.6-1.9-0.7-2.9-0.5c-1,0.2-1.9,0.8-2.4,1.7c-11.8,18.7-26,36.7-38.9,49.4
		c-10.9,10.7-25.9,16.3-41.2,15.4c-2.8-0.2-5.8-0.4-8.9-0.7l-3.7-0.3l2.3-3c1.6-2,3-4,4.4-6c7.2-10.3,10.9-22.6,10.7-35.4
		c-0.3-22.5-3.1-61.2-10.1-102.4l-0.7-4.2l2.9,0.6c38.3,7.7,70.5,18,93.2,29.8c7.8,4.1,11.3,13.3,8.2,21.5c-1.3,3.6-3,7.5-5,11.6
		c-0.9,1.9-0.1,4.2,1.8,5.2c1.9,0.9,4.3,0.1,5.2-1.8c2.1-4.3,3.9-8.5,5.3-12.2c1.2-3.2,1.7-6.5,1.6-9.9l-0.2-3.5l3.1,1.6
		c6.2,3.2,13.1,4.9,20,4.9c11.7,0,22.7-4.6,31-12.9c8.1-8.1,12.7-18.9,12.8-30.3C400.1,184,396.9,174.4,390.6,166.5z M180.9,18.3
		c11.3-11.3,28.3-13.9,42.3-6.4l3.4,1.8l-3.4,1.8c-10.6,5.7-20.4,13-29,21.6c-6.5,6.5-12.4,13.8-17.3,21.6l-2,3.2l-1.6-3.5
		C167.3,44.7,170.2,29,180.9,18.3z M100.7,389.5c-6.5,1.9-13.2,2.8-19.8,2.8c-19.1,0-37.8-7.5-51.7-21.4
		c-18.7-18.7-25.9-46.1-18.7-71.5l0.8-2.7l2.3,1.5c11.4,7.3,32.6,15.4,63,23.8l1.1,0.3l0.3,1.1c4.4,15.7,8.7,29.2,12.9,40.1
		c3.8,9.9,7.5,17.6,10.9,22.9l1.5,2.3L100.7,389.5z M223,296.4c0.1,11.2-3.1,21.9-9.4,30.9c-12.6,18.2-32.6,36.4-53.4,48.8
		c-15.1,9-28.6,13.8-38.2,13.8c-3.2,0-6-0.5-8.2-1.6c-0.3-0.1-0.6-0.3-0.9-0.5c-0.4-0.3-0.5-0.5-0.7-0.6c-2.9-2.6-12.9-15-27.6-68.8
		l-0.2-0.6c-1.4-5.1-2.8-10.6-4.3-16.5c-0.5-2.1-2.6-3.3-4.7-2.8c-1,0.3-1.9,0.9-2.4,1.8c-0.5,0.9-0.7,1.9-0.4,2.9
		c0.6,2.3,1.2,4.6,1.7,6.9l0.9,3.5l-3.5-1c-45.1-13.1-56.4-21.9-59.2-25.1c-0.5-0.6-0.8-1-1-1.4c-7.2-14.7,10.8-52.5,38.6-80.7
		l2.9-3l0.6,4.1c2.9,21.3,7.2,45.3,12.5,69.6c0.2,1,0.8,1.9,1.7,2.4c0.9,0.6,1.9,0.7,2.9,0.5c1-0.2,1.9-0.8,2.4-1.7s0.7-1.9,0.5-2.9
		c-8.4-38.3-14.2-75.8-15.6-100.5c-0.9-15.3,4.8-30.3,15.4-41.2c22.1-22.5,59.2-47.6,84.6-57.1c8.2-3.1,17.5,0.5,21.5,8.2
		c8.9,17,21.8,52.4,31.4,100.9c0.1,0.6,0.1,1,0.2,1.3C218.7,223.2,222.6,260.2,223,296.4z M330.3,220.5l-1.5,0.8l-1.1-1.3
		c-2.2-2.8-4.9-5-8-6.7c-24.7-12.9-58.3-23.5-99.9-31.5l-1.4-0.3l-0.3-1.4c-5.5-28.7-15.5-69.2-31.5-99.9c-1.6-3.1-3.9-5.9-6.7-8
		l-1.3-1.1l0.8-1.5c5.4-9.9,12.2-19.1,20.2-27.1C221.2,21,249.7,9,279.8,8.6c30.1-0.5,58.4,11,79.4,32.1
		c43.5,43.5,42.7,115-1.8,159.5C349.4,208.3,340.2,215.1,330.3,220.5z M381.7,219.1c-7,7-16.1,10.6-25.5,10.6c-4.9,0-9.9-1-14.6-3.1
		l-3.5-1.6l3.2-2c7.8-4.9,15-10.7,21.6-17.3c8.6-8.6,15.9-18.4,21.6-28.9l1.8-3.4l1.8,3.4C395.5,190.8,392.9,207.8,381.7,219.1z"/>
	<path class="st0" d="M271.3,64.8c-2.6-2.6-6.1-4-9.7-4c0,0,0,0,0,0c-3.7,0-7.1,1.4-9.7,4c-1.4,1.4-1.4,3.6,0,5c1.4,1.4,3.6,1.4,5,0
		c1.3-1.3,2.9-2,4.7-2c0,0,0,0,0,0c1.8,0,3.5,0.7,4.7,2c1.3,1.3,2,2.9,2,4.7s-0.7,3.5-2,4.7c-0.7,0.7-1,1.6-1,2.5s0.4,1.8,1,2.5
		c1.3,1.3,3.7,1.3,5,0c2.6-2.6,4-6.1,4-9.7S273.9,67.4,271.3,64.8z"/>
</g>
</svg>
