<svg id="Layer_1" data-name="Layer 1" xmlns="http://www.w3.org/2000/svg" viewBox="0 0 53 53"><defs><style>.cls-1{fill:#231f20;}</style></defs><title>01</title><path class="cls-1" d="M55,56.5A1.5,1.5,0,0,1,53.5,55V19.38H6.5V55a1.5,1.5,0,0,1-3,0V17.88A1.5,1.5,0,0,1,5,16.38H55a1.5,1.5,0,0,1,1.5,1.5V55A1.5,1.5,0,0,1,55,56.5ZM46.5,11V5A1.5,1.5,0,0,0,45,3.5H15A1.5,1.5,0,0,0,13.5,5v6a1.5,1.5,0,0,0,3,0V6.5h27V11a1.5,1.5,0,0,0,3,0Zm-2,20A1.5,1.5,0,0,0,43,29.5H17a1.5,1.5,0,0,0,0,3H43A1.5,1.5,0,0,0,44.5,31Zm0,14A1.5,1.5,0,0,0,43,43.5H17a1.5,1.5,0,0,0,0,3H43A1.5,1.5,0,0,0,44.5,45Z" transform="translate(-3.5 -3.5)"/></svg>