<svg id="Layer_1" data-name="Layer 1" xmlns="http://www.w3.org/2000/svg" viewBox="0 0 53 53"><defs><style>.cls-1{fill:#231f20;}</style></defs><title>04</title><path class="cls-1" d="M39,56.5h-.07a1.49,1.49,0,0,1-1.4-1.21L29,12.65,22.47,45.29a1.5,1.5,0,0,1-2.93.07l-3.67-14.7-1.43,4.77A1.5,1.5,0,0,1,13,36.5H5a1.5,1.5,0,0,1,0-3h6.88l2.68-8.93A1.48,1.48,0,0,1,16,23.5a1.52,1.52,0,0,1,1.43,1.14l3.38,13.53L27.53,4.71a1.5,1.5,0,0,1,2.94,0l8.82,44.1,4.27-14.24A1.5,1.5,0,0,1,45,33.5H55a1.5,1.5,0,0,1,0,3H46.12L40.44,55.43A1.5,1.5,0,0,1,39,56.5Z" transform="translate(-3.5 -3.5)"/></svg>