<?xml version="1.0" encoding="utf-8"?>
<!-- Generator: Adobe Illustrator 22.1.0, SVG Export Plug-In . SVG Version: 6.00 Build 0)  -->
<svg version="1.1" id="Layer_1" xmlns="http://www.w3.org/2000/svg" xmlns:xlink="http://www.w3.org/1999/xlink" x="0px" y="0px"
	 viewBox="0 0 400 400" style="enable-background:new 0 0 400 400;" xml:space="preserve">
<style type="text/css">
	.st0{fill:#231F20;}
</style>
<g>
	<g>
		<path class="st0" d="M190.9,48.4c-6.7,0-12.2-5.5-12.2-12.2V12.2c0-6.7,5.5-12.2,12.2-12.2S203,5.5,203,12.2v24.1
			C203,43,197.6,48.4,190.9,48.4z"/>
	</g>
	<g>
		<path class="st0" d="M264,48.4c-6.7,0-12.2-5.5-12.2-12.2V12.2C251.8,5.5,257.2,0,264,0s12.2,5.5,12.2,12.2v24.1
			C276.1,43,270.7,48.4,264,48.4z"/>
	</g>
	<g>
		<path class="st0" d="M117.8,48.4c-6.7,0-12.2-5.5-12.2-12.2V12.2C105.6,5.5,111,0,117.8,0c6.7,0,12.2,5.5,12.2,12.2v24.1
			C129.9,43,124.5,48.4,117.8,48.4z"/>
	</g>
	<g>
		<path class="st0" d="M174.6,381.7h-65c-51.5,0-93.4-41.9-93.4-93.4V125.9c0-51.5,41.9-93.4,93.4-93.4h162.4
			c51.5,0,93.4,41.9,93.4,93.4v65c0,6.7-5.5,12.2-12.2,12.2s-12.2-5.5-12.2-12.2v-65c0-38.1-31-69-69-69H109.6c-38.1,0-69,31-69,69
			v162.4c0,38.1,31,69,69,69h65c6.7,0,12.2,5.5,12.2,12.2S181.3,381.7,174.6,381.7z"/>
	</g>
	<g>
		<rect x="174.6" y="125.9" class="st0" width="32.5" height="32.5"/>
	</g>
	<g>
		<rect x="109.6" y="125.9" class="st0" width="32.5" height="32.5"/>
	</g>
	<g>
		<rect x="239.6" y="125.9" class="st0" width="32.5" height="32.5"/>
	</g>
	<g>
		<rect x="109.6" y="255.8" class="st0" width="32.5" height="32.5"/>
	</g>
	<g>
		<rect x="174.6" y="190.9" class="st0" width="32.5" height="32.5"/>
	</g>
	<g>
		<rect x="109.6" y="190.9" class="st0" width="32.5" height="32.5"/>
	</g>
	<g>
		<path class="st0" d="M296.4,400c-48.1,0-87.3-39.2-87.3-87.3s39.2-87.3,87.3-87.3s87.3,39.2,87.3,87.3S344.6,400,296.4,400z
			 M296.4,237.6c-41.4,0-75.1,33.7-75.1,75.1s33.7,75.1,75.1,75.1s75.1-33.7,75.1-75.1S337.9,237.6,296.4,237.6z"/>
	</g>
	<g>
		<path class="st0" d="M328.9,351.3c-1.6,0-3.1-0.6-4.3-1.8L292.1,317c-1.1-1.1-1.8-2.7-1.8-4.3v-40.6c0-3.4,2.7-6.1,6.1-6.1
			c3.4,0,6.1,2.7,6.1,6.1v38.1l30.7,30.7c2.4,2.4,2.4,6.2,0,8.6C332.1,350.7,330.5,351.3,328.9,351.3z"/>
	</g>
</g>
</svg>
