<svg id="Layer_1" data-name="Layer 1" xmlns="http://www.w3.org/2000/svg" viewBox="0 0 53 36.5"><defs><style>.cls-1{fill:#231f20;}</style></defs><title>08</title><path class="cls-1" d="M55.51,20.59l-25-9a1.49,1.49,0,0,0-1,0l-25,9a1.5,1.5,0,0,0,0,2.82L8,24.67V42a1.25,1.25,0,0,0,0,.19,3,3,0,1,0,1.93,0A1,1,0,0,0,10,42V25.39L14.5,27v8c0,4.77,6.81,8.5,15.5,8.5S45.5,39.77,45.5,35V27l10-3.6a1.5,1.5,0,0,0,0-2.82ZM9,46a1,1,0,1,1,1-1A1,1,0,0,1,9,46ZM42.5,35c0,2.6-5.13,5.5-12.5,5.5S17.5,37.6,17.5,35V28.09l12,4.32a1.49,1.49,0,0,0,1,0l12-4.32ZM30,29.41,9.43,22,30,14.59,50.57,22Z" transform="translate(-3.5 -11.5)"/></svg>