<svg id="Layer_1" data-name="Layer 1" xmlns="http://www.w3.org/2000/svg" viewBox="0 0 46.68 56.55"><defs><style>.cls-1{fill:#231f20;}</style></defs><title>09</title><path class="cls-1" d="M46.85,36.83a6.91,6.91,0,1,0-11.28,5.33.61.61,0,0,0,0,.13v15a1,1,0,0,0,1.56.84L40,56.2l2.85,1.91a1,1,0,0,0,.56.16,1.12,1.12,0,0,0,.47-.11,1,1,0,0,0,.53-.89v-15a.5.5,0,0,0,0-.13A6.9,6.9,0,0,0,46.85,36.83ZM35,36.83A4.91,4.91,0,1,1,40,41.73,4.91,4.91,0,0,1,35,36.83Zm7.32,18.58-1.85-1.24a1,1,0,0,0-1.11,0l-1.86,1.24V43.29a6.82,6.82,0,0,0,4.82,0Z" transform="translate(-6.66 -1.73)"/><path class="cls-1" d="M51.84,1.73H8.16a1.5,1.5,0,0,0-1.5,1.5V49.14a1.5,1.5,0,0,0,1.5,1.5H32.68a1.5,1.5,0,0,0,0-3h-23V4.73H50.34V47.64H47.22a1.5,1.5,0,0,0,0,3h4.62a1.5,1.5,0,0,0,1.5-1.5V3.23A1.5,1.5,0,0,0,51.84,1.73Z" transform="translate(-6.66 -1.73)"/><path class="cls-1" d="M16.33,13.81H43.58a1.5,1.5,0,0,0,0-3H16.33a1.5,1.5,0,1,0,0,3Z" transform="translate(-6.66 -1.73)"/><path class="cls-1" d="M45.08,20.49a1.5,1.5,0,0,0-1.5-1.5H16.33a1.5,1.5,0,1,0,0,3H43.58A1.5,1.5,0,0,0,45.08,20.49Z" transform="translate(-6.66 -1.73)"/><path class="cls-1" d="M30.55,28.66a1.5,1.5,0,0,0-1.5-1.5H16.33a1.5,1.5,0,1,0,0,3H29.05A1.5,1.5,0,0,0,30.55,28.66Z" transform="translate(-6.66 -1.73)"/><path class="cls-1" d="M16.33,35.34a1.5,1.5,0,1,0,0,3h10a1.5,1.5,0,0,0,0-3Z" transform="translate(-6.66 -1.73)"/></svg>