<svg id="Layer_1" data-name="Layer 1" xmlns="http://www.w3.org/2000/svg" viewBox="0 0 54.83 53.55"><defs><style>.cls-1{fill:#231f20;}</style></defs><title>07</title><path class="cls-1" d="M43.85,38.73l0-.1a1.05,1.05,0,0,0,0-.19.19.19,0,0,0,0-.08,1.23,1.23,0,0,0,0-.2s0-.06,0-.09a1.5,1.5,0,0,0,0-.2.24.24,0,0,1,0-.08,1.59,1.59,0,0,0-.07-.2l0-.07-.11-.19v0a14.34,14.34,0,0,0-23.47,0s0,0,0,0a.75.75,0,0,0-.07.12l-.07.14a.56.56,0,0,0,0,.12c0,.05,0,.11,0,.16S20,38,20,38s0,.11,0,.17,0,.09,0,.13,0,.1,0,.15a.65.65,0,0,0,0,.13.83.83,0,0,0,0,.15l.06.12s.05.1.08.14,0,0,0,0a14.34,14.34,0,0,0,23.47,0s0,0,0,0a.41.41,0,0,0,.07-.11ZM32,42.13a11.38,11.38,0,0,1-8.6-4,11.31,11.31,0,0,1,17.19,0A11.37,11.37,0,0,1,32,42.13Z" transform="translate(-2.67 -3.5)"/><path class="cls-1" d="M32,28.05a6.49,6.49,0,1,0-6.5-6.49A6.5,6.5,0,0,0,32,28.05Zm0-10a3.49,3.49,0,1,1-3.5,3.49A3.49,3.49,0,0,1,32,18.07Z" transform="translate(-2.67 -3.5)"/><path class="cls-1" d="M43,3.5H20.91A14.53,14.53,0,0,0,7.33,13H4.17a1.5,1.5,0,0,0,0,3h2.4a15.31,15.31,0,0,0-.16,2V29.46H4.17a1.5,1.5,0,0,0,0,3H6.41V42.55A14.81,14.81,0,0,0,6.83,46H4.17a1.5,1.5,0,0,0,0,3H7.92a14.53,14.53,0,0,0,13,8.09H43a14.52,14.52,0,0,0,14.5-14.5V18A14.52,14.52,0,0,0,43,3.5ZM54.5,42.55A11.51,11.51,0,0,1,43,54.05H20.91a11.51,11.51,0,0,1-11.5-11.5V18A11.51,11.51,0,0,1,20.91,6.5H43A11.51,11.51,0,0,1,54.5,18Z" transform="translate(-2.67 -3.5)"/></svg>