<?xml version="1.0" encoding="utf-8"?>
<!-- Generator: Adobe Illustrator 22.1.0, SVG Export Plug-In . SVG Version: 6.00 Build 0)  -->
<svg version="1.1" id="Layer_1" xmlns="http://www.w3.org/2000/svg" xmlns:xlink="http://www.w3.org/1999/xlink" x="0px" y="0px"
	 viewBox="0 0 60 40" style="enable-background:new 0 0 60 40;" xml:space="preserve">
<g>
	<path d="M24.8,31.7c1.1-1.1,1.1-2.8,0-3.9l-5.1-5.1c-1.1-1.1-1.1-2.8,0-3.9h0c1.1-1.1,2.8-1.1,3.9,0l4.4,4.4c1.1,1.1,2.8,1.1,3.9,0
		c1.1-1.1,1.1-2.8,0-3.9l-2.2-2.2c-1.1-1.1-1.1-2.8,0-3.9c1.1-1.1,2.8-1.1,3.9,0l14.7,14.7c1.1,1.1,2.8,1.1,3.9,0
		c1.1-1.1,1.1-2.8,0-3.9L33,5c-1.1-1.1-1.1-2.8,0-3.9v0C34,0,35.8,0,36.8,1.1l6.8,6.8c1.1,1.1,2.8,1.1,3.9,0h0
		c1.1-1.1,1.1-2.8,0-3.9l-4-4H0v10.8l20.9,20.9C22,32.8,23.8,32.8,24.8,31.7z"/>
	<path d="M49,9.3c-1.1,1.1-1.1,2.8,0,3.9c1.1,1.1,2.8,1.1,3.9,0s1.1-2.8,0-3.9C51.8,8.3,50,8.3,49,9.3z"/>
	<path d="M33,24.4c-1.1,1.1-1.1,2.8,0,3.9c1.1,1.1,2.8,1.1,3.9,0c1.1-1.1,1.1-2.8,0-3.9S34.1,23.3,33,24.4z"/>
</g>
</svg>
