<?xml version="1.0" encoding="utf-8"?>
<!-- Generator: Adobe Illustrator 22.1.0, SVG Export Plug-In . SVG Version: 6.00 Build 0)  -->
<svg version="1.1" id="Layer_1" xmlns="http://www.w3.org/2000/svg" xmlns:xlink="http://www.w3.org/1999/xlink" x="0px" y="0px"
	 viewBox="0 0 400 400" style="enable-background:new 0 0 400 400;" xml:space="preserve">
<style type="text/css">
	.st0{fill:#231F20;}
</style>
<g>
	<g>
		<path class="st0" d="M313.2,362.3H86.8C38.9,362.3,0,323.3,0,275.5V124.5c0-47.9,38.9-86.8,86.8-86.8h226.4
			c47.9,0,86.8,38.9,86.8,86.8v150.9C400,323.3,361.1,362.3,313.2,362.3z M86.8,60.4c-35.4,0-64.2,28.8-64.2,64.2v150.9
			c0,35.4,28.8,64.2,64.2,64.2h226.4c35.4,0,64.2-28.8,64.2-64.2V124.5c0-35.4-28.8-64.2-64.2-64.2H86.8z"/>
	</g>
	<g>
		<path class="st0" d="M200,264.2c-2.6,0-5.3-0.9-7.4-2.8L10.2,102.9c-4.7-4.1-5.2-11.2-1.1-16c4.1-4.7,11.2-5.2,16-1.1l174.9,152
			l174.9-152c4.7-4.1,11.9-3.6,16,1.1c4.1,4.7,3.6,11.9-1.1,16L207.4,261.4C205.3,263.2,202.6,264.2,200,264.2z"/>
	</g>
	<g>
		<path class="st0" d="M358.3,332.8c-3,0-6.1-1.2-8.3-3.6L244.1,215.3c-4.3-4.6-4-11.7,0.6-16c4.6-4.3,11.7-4,16,0.6l105.9,113.9
			c4.3,4.6,4,11.7-0.6,16C363.8,331.8,361.1,332.8,358.3,332.8z"/>
	</g>
	<g>
		<path class="st0" d="M41.7,332.8c-2.8,0-5.5-1-7.7-3c-4.6-4.3-4.8-11.4-0.6-16l105.9-113.9c4.3-4.6,11.4-4.8,16-0.6
			c4.6,4.3,4.8,11.4,0.6,16L50,329.2C47.7,331.6,44.7,332.8,41.7,332.8z"/>
	</g>
</g>
</svg>
