<svg id="Layer_1" data-name="Layer 1" xmlns="http://www.w3.org/2000/svg" viewBox="0 0 35.53 19.43"><defs><style>.cls-1{fill:#231f20;}</style></defs><title>11</title><path class="cls-1" d="M47.76,30.18a.65.65,0,0,0,0-.14,1,1,0,0,0,0-.24.25.25,0,0,0,0-.11,1.36,1.36,0,0,0-.11-.25,0,0,0,0,0,0,0,21.51,21.51,0,0,0-35.19,0,0,0,0,0,1,0,0,.77.77,0,0,0-.07.16,1.67,1.67,0,0,0-.08.2.65.65,0,0,0,0,.14,1.92,1.92,0,0,0,0,.24,1.39,1.39,0,0,0,.06.13.85.85,0,0,0,.09.22,0,0,0,0,1,0,0,21.52,21.52,0,0,0,35.2,0,0,0,0,0,1,0,0,1.42,1.42,0,0,0,.08-.18C47.71,30.3,47.74,30.25,47.76,30.18ZM30,37.71A19.53,19.53,0,0,1,14.47,30a19.5,19.5,0,0,1,31.06,0A19.53,19.53,0,0,1,30,37.71Z" transform="translate(-12.24 -20.29)"/><path class="cls-1" d="M30,24.64A5.37,5.37,0,1,0,35.37,30,5.38,5.38,0,0,0,30,24.64Zm0,8.74A3.37,3.37,0,1,1,33.37,30,3.37,3.37,0,0,1,30,33.38Z" transform="translate(-12.24 -20.29)"/></svg>