<svg id="Layer_1" data-name="Layer 1" xmlns="http://www.w3.org/2000/svg" viewBox="0 0 53 53"><defs><style>.cls-1{fill:#231f20;}</style></defs><title>03</title><path class="cls-1" d="M41,19.5H19a1.5,1.5,0,0,0,0,3H41a1.5,1.5,0,0,0,0-3Z" transform="translate(-3.5 -3.5)"/><path class="cls-1" d="M41,28.5H19a1.5,1.5,0,0,0,0,3H41a1.5,1.5,0,0,0,0-3Z" transform="translate(-3.5 -3.5)"/><path class="cls-1" d="M41,37.5H19a1.5,1.5,0,0,0,0,3H41a1.5,1.5,0,0,0,0-3Z" transform="translate(-3.5 -3.5)"/><path class="cls-1" d="M30,3.5A26.49,26.49,0,0,0,7.35,43.74L3.58,54.5A1.51,1.51,0,0,0,5,56.5a1.44,1.44,0,0,0,.54-.1l10.31-4A26.49,26.49,0,1,0,30,3.5Zm0,50a23.34,23.34,0,0,1-13.14-4h0l0,0-.22-.11-.1,0-.18,0-.11,0h-.47a1.17,1.17,0,0,0-.2.06l-.07,0h0L7.49,52.42l2.93-8.36s0-.05,0-.08l0-.15a.77.77,0,0,0,0-.15s0-.09,0-.14,0-.1,0-.15a.68.68,0,0,0,0-.14.74.74,0,0,0,0-.14.78.78,0,0,0-.05-.14l-.07-.14,0-.08A23.5,23.5,0,1,1,30,53.5Z" transform="translate(-3.5 -3.5)"/></svg>