<svg id="favorites-button" xmlns="http://www.w3.org/2000/svg" width="30.348" height="30.348" viewBox="0 0 30.348 30.348">
  <path id="Path_8" data-name="Path 8" d="M64.635,65.727a.5.5,0,0,1,.179-.551l3.852-2.826a1.732,1.732,0,0,0-1.016-3.128L62.873,59.2a.5.5,0,0,1-.469-.341l-1.5-4.537a1.707,1.707,0,0,0-1.644-1.189h0a1.707,1.707,0,0,0-1.644,1.189l-.675,2.044a.618.618,0,0,0,1.173.387l.675-2.044a.5.5,0,0,1,.943,0l1.5,4.537a1.73,1.73,0,0,0,1.636,1.189l4.777.022a.5.5,0,0,1,.291.9L64.084,64.18a1.73,1.73,0,0,0-.625,1.924l1.456,4.552a.5.5,0,0,1-.763.554l-3.878-2.791a1.73,1.73,0,0,0-2.023,0L54.372,71.21a.5.5,0,0,1-.763-.554L55.064,66.1a1.73,1.73,0,0,0-.625-1.924l-3.852-2.826a.5.5,0,0,1,.291-.9l4.778-.022a.618.618,0,0,0,0-1.235h0l-4.778.022a1.732,1.732,0,0,0-1.016,3.128l3.852,2.826a.5.5,0,0,1,.179.552L52.432,70.28a1.707,1.707,0,0,0,.632,1.928,1.707,1.707,0,0,0,2.029,0l3.879-2.791a.5.5,0,0,1,.58,0l3.878,2.791a1.732,1.732,0,0,0,2.661-1.933Z" transform="translate(-44.087 -47.664)" fill="#28db9a"/>
  <path id="Path_9" data-name="Path 9" d="M15.174,0a15.174,15.174,0,0,0,0,30.348.618.618,0,1,0,0-1.235,13.934,13.934,0,1,1,7.49-2.181.618.618,0,0,0,.665,1.041A15.176,15.176,0,0,0,15.174,0Z" fill="#28db9a"/>
</svg>
