<?xml version="1.0" encoding="utf-8"?>
<!-- Generator: Adobe Illustrator 22.1.0, SVG Export Plug-In . SVG Version: 6.00 Build 0)  -->
<svg version="1.1" id="Layer_1" xmlns="http://www.w3.org/2000/svg" xmlns:xlink="http://www.w3.org/1999/xlink" x="0px" y="0px"
	 viewBox="0 0 400 400" style="enable-background:new 0 0 400 400;" xml:space="preserve">
<style type="text/css">
	.st0{fill:#231F20;}
</style>
<g>
	<path class="st0" d="M200,385.6c-3.6,0-7.1-1.4-9.9-4.1L36.8,228.2C13.1,204.5,0,172.9,0,139.4v-14C0,68.6,42.4,20,96.5,14.9
		c30.6-2.9,59.8,6.8,82.4,27.3c8.5,7.7,15.5,16.6,21.1,26.4c5.5-9.8,12.6-18.7,21.1-26.4c22.6-20.5,51.8-30.2,82.4-27.3
		C357.6,20,400,68.6,400,125.4v14c0,33.5-13.1,65.1-36.8,88.8L209.9,381.5C207.1,384.3,203.6,385.6,200,385.6z M107,42.3
		c-2.6,0-5.2,0.1-7.9,0.4c-40,3.8-71.3,40.1-71.3,82.7v14c0,26.1,10.2,50.6,28.6,69.1L200,351.9l143.5-143.5
		c18.5-18.5,28.6-43,28.6-69.1v-14c0-42.6-31.3-78.9-71.3-82.7c-22.7-2.2-44.3,5-61,20.2c-16.5,15-25.9,36.3-25.9,58.5
		c0,7.7-6.2,14-14,14s-14-6.2-14-14c0-22.2-9.4-43.6-25.9-58.5C145.4,49.4,126.8,42.3,107,42.3z"/>
</g>
</svg>
