<?xml version="1.0" encoding="utf-8"?>
<!-- Generator: Adobe Illustrator 22.1.0, SVG Export Plug-In . SVG Version: 6.00 Build 0)  -->
<svg version="1.1" id="Layer_1" xmlns="http://www.w3.org/2000/svg" xmlns:xlink="http://www.w3.org/1999/xlink" x="0px" y="0px"
	 viewBox="0 0 400 400" style="enable-background:new 0 0 400 400;" xml:space="preserve">
<style type="text/css">
	.st0{fill:#231F20;}
</style>
<g>
	<g>
		<path class="st0" d="M386,214c-3.6,0-7.1-1.4-9.9-4.1L200,33.7L23.8,209.9c-5.5,5.5-14.3,5.5-19.7,0s-5.5-14.3,0-19.7l186-186
			c5.5-5.5,14.3-5.5,19.7,0l186,186c5.5,5.5,5.5,14.3,0,19.7C393.2,212.6,389.6,214,386,214z"/>
	</g>
	<g>
		<path class="st0" d="M125.6,400H51.2c-7.7,0-14-6.2-14-14V162.8c0-7.7,6.2-14,14-14s14,6.2,14,14v209.3h60.5c7.7,0,14,6.2,14,14
			S133.3,400,125.6,400z"/>
	</g>
	<g>
		<path class="st0" d="M348.8,400h-74.4c-7.7,0-14-6.2-14-14s6.2-14,14-14h60.5V162.8c0-7.7,6.2-14,14-14s14,6.2,14,14V386
			C362.8,393.8,356.5,400,348.8,400z"/>
	</g>
	<g>
		<path class="st0" d="M274.4,400c-7.7,0-14-6.2-14-14v-93c0-33.3-27.1-60.5-60.5-60.5s-60.5,27.1-60.5,60.5v93c0,7.7-6.2,14-14,14
			s-14-6.2-14-14v-93c0-48.7,39.6-88.4,88.4-88.4s88.4,39.6,88.4,88.4v93C288.4,393.8,282.1,400,274.4,400z"/>
	</g>
</g>
</svg>
