<svg id="Layer_1" data-name="Layer 1" xmlns="http://www.w3.org/2000/svg" viewBox="0 0 54 53"><defs><style>.cls-1{fill:#231f20;}</style></defs><title>05</title><path class="cls-1" d="M56.56,3.94a1.49,1.49,0,0,0-2.12,0l-6.78,6.78A26.49,26.49,0,0,0,10.22,48.16L4.44,53.94a1.49,1.49,0,0,0,0,2.12,1.5,1.5,0,0,0,2.12,0l5.84-5.84A26.48,26.48,0,0,0,49.72,12.9l6.84-6.84A1.49,1.49,0,0,0,56.56,3.94ZM6,30A23.49,23.49,0,0,1,45.54,12.84L12.34,46A23.44,23.44,0,0,1,6,30Zm47,0A23.49,23.49,0,0,1,14.52,48.1L47.6,15A23.41,23.41,0,0,1,53,30Z" transform="translate(-3 -3.5)"/></svg>