<?xml version="1.0" encoding="utf-8"?>
<!-- Generator: Adobe Illustrator 22.1.0, SVG Export Plug-In . SVG Version: 6.00 Build 0)  -->
<svg version="1.1" id="Layer_1" xmlns="http://www.w3.org/2000/svg" xmlns:xlink="http://www.w3.org/1999/xlink" x="0px" y="0px"
	 viewBox="0 0 400 400" style="enable-background:new 0 0 400 400;" xml:space="preserve">
<style type="text/css">
	.st0{fill:#231F20;}
</style>
<g>
	<path class="st0" d="M274.4,400H125.6C56.3,400,0,343.7,0,274.4V125.6C0,56.3,56.3,0,125.6,0h148.8C343.7,0,400,56.3,400,125.6
		v148.8C400,343.7,343.7,400,274.4,400z M125.6,27.9c-53.9,0-97.7,43.8-97.7,97.7v148.8c0,53.9,43.8,97.7,97.7,97.7h148.8
		c53.9,0,97.7-43.8,97.7-97.7V125.6c0-53.9-43.8-97.7-97.7-97.7H125.6z"/>
</g>
<g>
	<path class="st0" d="M200,307c-59,0-107-48-107-107S141,93,200,93s107,48,107,107S259,307,200,307z M200,120.9
		c-43.6,0-79.1,35.5-79.1,79.1s35.5,79.1,79.1,79.1s79.1-35.5,79.1-79.1S243.6,120.9,200,120.9z"/>
</g>
</svg>
