<?xml version="1.0" encoding="utf-8"?>
<!-- Generator: Adobe Illustrator 22.1.0, SVG Export Plug-In . SVG Version: 6.00 Build 0)  -->
<svg version="1.1" id="Layer_1" xmlns="http://www.w3.org/2000/svg" xmlns:xlink="http://www.w3.org/1999/xlink" x="0px" y="0px"
	 viewBox="0 0 400 400" style="enable-background:new 0 0 400 400;" xml:space="preserve">
<style type="text/css">
	.st0{fill:#231F20;}
</style>
<g>
	<g>
		<path class="st0" d="M91.8,289.2c-50.5,0-91.5-41.1-91.5-91.5s41.1-91.5,91.5-91.5s91.5,41.1,91.5,91.5S142.3,289.2,91.8,289.2z
			 M91.8,129.2c-37.7,0-68.5,30.7-68.5,68.5s30.7,68.5,68.5,68.5s68.5-30.7,68.5-68.5S129.5,129.2,91.8,129.2z"/>
	</g>
	<g>
		<path class="st0" d="M388.7,209.2H171.8c-6.4,0-11.5-5.2-11.5-11.5c0-6.4,5.2-11.5,11.5-11.5h216.9c6.4,0,11.5,5.2,11.5,11.5
			C400.2,204.1,395.1,209.2,388.7,209.2z"/>
	</g>
	<g>
		<path class="st0" d="M234.9,293.8c-6.4,0-11.5-5.2-11.5-11.5v-84.6c0-6.4,5.2-11.5,11.5-11.5s11.5,5.2,11.5,11.5v84.6
			C246.4,288.7,241.2,293.8,234.9,293.8z"/>
	</g>
	<g>
		<path class="st0" d="M357.9,263.1c-6.4,0-11.5-5.2-11.5-11.5v-46.2c0-6.4,5.2-11.5,11.5-11.5c6.4,0,11.5,5.2,11.5,11.5v46.2
			C369.5,257.9,364.3,263.1,357.9,263.1z"/>
	</g>
	<g>
		<path class="st0" d="M296.4,247.7c-6.4,0-11.5-5.2-11.5-11.5v-38.5c0-6.4,5.2-11.5,11.5-11.5c6.4,0,11.5,5.2,11.5,11.5v38.5
			C307.9,242.5,302.8,247.7,296.4,247.7z"/>
	</g>
</g>
</svg>
