<?xml version="1.0" encoding="utf-8"?>
<!-- Generator: Adobe Illustrator 22.1.0, SVG Export Plug-In . SVG Version: 6.00 Build 0)  -->
<svg version="1.1" id="Layer_1" xmlns="http://www.w3.org/2000/svg" xmlns:xlink="http://www.w3.org/1999/xlink" x="0px" y="0px"
	 viewBox="0 0 400 400" style="enable-background:new 0 0 400 400;" xml:space="preserve">
<style type="text/css">
	.st0{fill:#231F20;}
</style>
<g>
	<path class="st0" d="M200,400c-7.9,0-15.2-4.4-18.9-11.4L81.3,203.6c-10.6-20.1-16.2-42.8-16.2-65.6C65.1,61.9,125.6,0,200,0
		s134.9,61.9,134.9,138c0,22.8-5.6,45.4-16.1,65.4l-99.9,185.3C215.2,395.6,207.9,400,200,400z M200,27.9C141,27.9,93,77.3,93,138
		c0,18.3,4.5,36.4,12.9,52.4L200,364.9l94.2-174.7c8.4-15.9,12.8-34,12.8-52.3C307,77.3,259,27.9,200,27.9z M200,214
		c-41,0-74.4-34.1-74.4-76S159,62,200,62s74.4,34.1,74.4,76S241,214,200,214z M200,89.9c-25.6,0-46.5,21.6-46.5,48.1
		S174.4,186,200,186s46.5-21.6,46.5-48.1S225.6,89.9,200,89.9z"/>
</g>
</svg>
