<?xml version="1.0" encoding="utf-8"?>
<!-- Generator: Adobe Illustrator 22.1.0, SVG Export Plug-In . SVG Version: 6.00 Build 0)  -->
<svg version="1.1" id="Layer_1" xmlns="http://www.w3.org/2000/svg" xmlns:xlink="http://www.w3.org/1999/xlink" x="0px" y="0px"
	 viewBox="0 0 400 400" style="enable-background:new 0 0 400 400;" xml:space="preserve">
<style type="text/css">
	.st0{fill:#231F20;}
</style>
<g>
	<g>
		<path class="st0" d="M200,400c-86.1,0-156.2-70.1-156.2-156.2S113.9,87.6,200,87.6s156.2,70.1,156.2,156.2S286.1,400,200,400z
			 M200,116c-70.5,0-127.8,57.3-127.8,127.8S129.5,371.6,200,371.6s127.8-57.3,127.8-127.8S270.5,116,200,116z"/>
	</g>
	<g>
		<path class="st0" d="M285.2,137.3c-3.9,0-7.1-3.2-7.1-7.1V91.6c0-42.7-35-77.4-78.1-77.4s-78.1,34.7-78.1,77.4v38.5
			c0,3.9-3.2,7.1-7.1,7.1s-7.1-3.2-7.1-7.1V91.6C107.7,41.1,149.1,0,200,0s92.3,41.1,92.3,91.6v38.5
			C292.3,134.1,289.1,137.3,285.2,137.3z"/>
	</g>
	<g>
		<path class="st0" d="M228.4,234.3c0-15.7-12.7-28.4-28.4-28.4s-28.4,12.7-28.4,28.4c0,12.3,7.9,22.8,18.9,26.7v20.7
			c0,5.2,4.2,9.5,9.5,9.5s9.5-4.2,9.5-9.5V261C220.5,257.1,228.4,246.7,228.4,234.3z"/>
	</g>
</g>
</svg>
