<svg xmlns="http://www.w3.org/2000/svg" 
  xmlns:xlink="http://www.w3.org/1999/xlink" viewBox="0 0 986.847 845.669">
  <defs>
    <linearGradient id="linear-gradient" x1="1" y1="0.218" x2="0.051" y2="1.945" gradientUnits="objectBoundingBox">
      <stop offset="0" stop-color="#56e4ab"/>
      <stop offset="1" stop-color="#34ccd7"/>
    </linearGradient>
  </defs>
  <g id="Logo_-_Full_Monochrome_" data-name="Logo - Full [Monochrome]" transform="translate(0.02)">
    <path id="Path_1" data-name="Path 1" d="M242.908,12.6c2.66.26,5.35.521,8.01.723a204.789,204.789,0,0,1,98.114,33.6c49.419,32.907,80.793,78.653,93,136.689,12.984,61.882,1.012,119.368-34.266,171.939-.289.434-.607.839-.9,1.3a4.046,4.046,0,0,0-.2.549,11.819,11.819,0,0,0,1.272-.2,648.521,648.521,0,0,0,69.921-23.133c18.362-7.518,36.348-16.193,54.1-25.1a943.231,943.231,0,0,0,149.152-93.748c17.35-13.3,35.51-25.852,52.05-40.31,4.308-3.788,8.675-7.518,12.955-11.249a350.531,350.531,0,0,1,78.567-51.819,120.264,120.264,0,0,1,41.264-11.885c19.924-1.764,37.91,3.065,53.207,16.454,10.815,9.485,14.111,21.485,11.567,35.278-2.227,12.319-9.109,22.092-17.495,30.941l-3.672,3.933-1.677-1.88a56.966,56.966,0,0,0-34.526-20.444,73.419,73.419,0,0,0-31.982,2.371,152.048,152.048,0,0,0-31.808,13.446A319.658,319.658,0,0,0,763.67,211c-23.423,18.8-46.469,38.054-69.747,57.024-20.242,16.656-42.074,31.519-63.848,46.267-9.745,6.622-19.316,13.446-29.235,19.75a619.846,619.846,0,0,1-75.183,42.1,875.333,875.333,0,0,1-160.922,55.607,569.649,569.649,0,0,1-61.622,11.162,332.081,332.081,0,0,1-63.183,2.4c-54.1-3.586-103.088-20.936-145.683-55.057A210.687,210.687,0,0,1,28.809,303.5a182.9,182.9,0,0,1-13.331-73.333,218.928,218.928,0,0,1,86.4-171.36A215.893,215.893,0,0,1,190.425,17.14a199.527,199.527,0,0,1,31.808-4.193,18.784,18.784,0,0,0,2.516-.347Zm-5.494,372.071c8.993-.376,18.015-.665,27.008-1.128a519,519,0,0,0,53.843-6.1,743.5,743.5,0,0,0,74.461-16.078,5.783,5.783,0,0,0,2.892-1.966q50.662-72,38.43-159.042a209.791,209.791,0,0,0-24.984-73.217A207.8,207.8,0,0,0,226.657,19.54a140.563,140.563,0,0,0-20.068,1.07,154.1,154.1,0,0,0-39.5,11.885,208.75,208.75,0,0,0-75.82,57.6,223.382,223.382,0,0,0-43.115,77.728c-9.2,29.177-12.116,58.846-6.044,89.092a139.06,139.06,0,0,0,30.97,64.253c23.6,27.587,53.5,45.11,88.4,54.421a301.2,301.2,0,0,0,75.935,9.08Z" transform="translate(16.368 -12.6)" fill="url(#linear-gradient)"/>
    <path id="Path_2" data-name="Path 2" d="M4.478,163.676c.376-4.309.723-8.675,1.128-12.926A234.226,234.226,0,0,1,27.64,72.067,253.164,253.164,0,0,1,44.99,41.213a8.415,8.415,0,0,1,2-2.313l-.925,1.59a242.466,242.466,0,0,0-33.919,81.95,227.285,227.285,0,0,0-4.627,59.193A229.657,229.657,0,0,0,42.85,293.28a251.085,251.085,0,0,0,60.06,66.046A270.659,270.659,0,0,0,206.259,409.67a287.9,287.9,0,0,0,80.649,7.345c21.485-.983,42.912-2.631,64.34-4.28,44.994-3.5,88.341-14.661,131.369-27.789,64.253-19.606,123.995-48.84,181.337-83.367,27.9-16.8,54.768-35.134,80.967-54.595,13.533-10.092,27.182-20.068,40.657-30.218,4.916-3.73,9.456-7.952,14.458-11.769,6.333-5,12.666-10.063,19.259-14.69A360.522,360.522,0,0,1,869,160.263a145.076,145.076,0,0,1,45.2-14.458c18.825-2.342,36.377.954,52.05,12.347a53.236,53.236,0,0,1,18.217,25.88,124.891,124.891,0,0,1,6.766,43.606,165.665,165.665,0,0,1-20.7,79.608,299.576,299.576,0,0,1-57.833,74.461,412.843,412.843,0,0,1-82.644,60.9,472.849,472.849,0,0,1-131.4,50.807,382.629,382.629,0,0,1-93.979,9.456,260.915,260.915,0,0,1-88.312-16.4A162.772,162.772,0,0,1,467.2,457.556l-1.272-1.186,4.251-1.186A695.229,695.229,0,0,0,542.473,431.5a3.7,3.7,0,0,1,2.892,0,161.5,161.5,0,0,0,56.85,22.9,253,253,0,0,0,70.673,4.077A363.252,363.252,0,0,0,807.322,420.89a338.324,338.324,0,0,0,94.76-67.492,223.322,223.322,0,0,0,42.854-59.742,128.789,128.789,0,0,0,12.2-38.112,52.717,52.717,0,0,0-1.533-24.377,30.739,30.739,0,0,0-22.931-20.473,79.347,79.347,0,0,0-40.715.954,164.826,164.826,0,0,0-38.806,16.685,365.08,365.08,0,0,0-37.939,25.129c-8.415,6.3-16.4,13.157-24.695,19.634-17.35,13.533-34.874,27.124-52.455,40.483-21.109,16.02-43.375,30.3-65.7,44.647l-11.249,7.258a558.1,558.1,0,0,1-71.656,40.483A723.591,723.591,0,0,1,456.1,453.508q-27.818,6.68-56.272,10.757a2.545,2.545,0,0,1-2.892-1.5,166.4,166.4,0,0,0-10.67-16.54c-6.651-8.415-16.02-12.926-26.17-15.9a145.565,145.565,0,0,0-33.6-5.436c-18.767-.983-37.592-1.648-56.33-2.458a312.736,312.736,0,0,1-63.067-7.981,289.631,289.631,0,0,1-87.531-38.17,259.585,259.585,0,0,1-78.075-77.612A226.621,226.621,0,0,1,7.63,210.781c-1.359-8.675-1.88-17.35-2.892-26.025a13.657,13.657,0,0,0-.318-2.14Z" transform="translate(-4.44 37.151)" fill="url(#linear-gradient)"/>
    <path id="Path_3" data-name="Path 3" d="M156.185,324.638a41.322,41.322,0,0,1-19.23,15.5l20.878,70.354H132.444l-20.5-67.463H53.1v67.318H28.72V317.814h93.343a16.6,16.6,0,0,0,12.174-5.176,17,17,0,0,0,5.118-12.434v-7.836a17.35,17.35,0,0,0-5.118-12.694,16.6,16.6,0,0,0-12.174-5.234h-92.3V249.31h92.3a39.587,39.587,0,0,1,16.222,3.383,41.091,41.091,0,0,1,13.273,9.2,43.693,43.693,0,0,1,12.174,30.42v7.663a42.536,42.536,0,0,1-7.547,24.666Z" transform="translate(41.528 435.177)" fill="url(#linear-gradient)"/>
    <path id="Path_4" data-name="Path 4" d="M125.355,410.889a39.964,39.964,0,0,1-16.367-3.383,42.187,42.187,0,0,1-13.273-9.2,43.693,43.693,0,0,1-12.174-30.565v-7.518A43.52,43.52,0,0,1,86.693,343.6,42.19,42.19,0,0,1,95.6,329.922,41.9,41.9,0,0,1,86.693,316.1a44.127,44.127,0,0,1-3.152-16.6v-7.547a43.173,43.173,0,0,1,3.268-16.8A45.456,45.456,0,0,1,95.6,261.418a42.767,42.767,0,0,1,13.273-9.4,39.559,39.559,0,0,1,16.483-3.47h80.764v25.533H125.355a16.742,16.742,0,0,0-12.319,5.176,17.35,17.35,0,0,0-5.118,12.695V299.5a17.35,17.35,0,0,0,17.35,17.581v25.533a16.742,16.742,0,0,0-12.319,5.176,16.945,16.945,0,0,0-5.118,12.434v7.518a17.668,17.668,0,0,0,5.118,12.723,16.511,16.511,0,0,0,12.405,5.292h80.764v25.129Zm-7.432-68.272V317.083h44.1v25.533Z" transform="translate(145.228 433.739)" fill="url(#linear-gradient)"/>
    <path id="Path_5" data-name="Path 5" d="M278.958,248.831v25.129H175.726a16.511,16.511,0,0,0-12.232,5.147,17.35,17.35,0,0,0-5.06,12.723v7.663a17.06,17.06,0,0,0,5.06,12.434,16.512,16.512,0,0,0,12.232,5.147H249.2a39.961,39.961,0,0,1,16.367,3.383,43.865,43.865,0,0,1,13.388,9.2,42.419,42.419,0,0,1,9.051,13.706,43.375,43.375,0,0,1,3.268,16.714v7.808a43.376,43.376,0,0,1-3.268,16.714,42.421,42.421,0,0,1-9.051,13.706,43.868,43.868,0,0,1-13.388,9.2A39.964,39.964,0,0,1,249.2,410.88H146.231V385.722H249.2a16.193,16.193,0,0,0,12.376-5.292,17.784,17.784,0,0,0,4.945-12.55v-7.808a17.35,17.35,0,0,0-4.945-12.434,16.4,16.4,0,0,0-12.376-5.147H175.726a39.845,39.845,0,0,1-16.338-3.383,40.949,40.949,0,0,1-13.273-9.311,45.369,45.369,0,0,1-8.906-13.707,41.871,41.871,0,0,1-3.268-16.6V291.83a42.8,42.8,0,0,1,3.268-16.743,43.375,43.375,0,0,1,8.906-13.707,41.988,41.988,0,0,1,13.273-9.2,40.281,40.281,0,0,1,16.338-3.355Z" transform="translate(240.568 434.269)" fill="url(#linear-gradient)"/>
    <path id="Path_6" data-name="Path 6" d="M241.72,266.252a57.83,57.83,0,0,1,11.306-10.237,54.945,54.945,0,0,1,13.475-6.738,43.752,43.752,0,0,1,14.458-2.458,44.966,44.966,0,0,1,14.458,2.458,55.26,55.26,0,0,1,24.666,16.858,43.377,43.377,0,0,1,7.432,12.695l34.237,88.774a53.031,53.031,0,0,1,3.47,18.593,28.338,28.338,0,0,1-3.73,14.458,16.887,16.887,0,0,1-15.239,8.473H333.3V383.6h7.171a19.2,19.2,0,0,0-1.648-6.766L304.7,287.94a22.439,22.439,0,0,0-3.788-5.783,33.048,33.048,0,0,0-5.783-5.176,30.8,30.8,0,0,0-7.113-3.615,21.371,21.371,0,0,0-7.2-1.388,19.925,19.925,0,0,0-7.113,1.388,31.261,31.261,0,0,0-6.911,3.7,36.374,36.374,0,0,0-5.783,5.176,23.133,23.133,0,0,0-4.048,5.783l-33.717,88.948a16.628,16.628,0,0,0-1.793,6.767h7.056v25.534H215.7a16.916,16.916,0,0,1-15.268-8.473,25.042,25.042,0,0,1-3.99-14.285,54.19,54.19,0,0,1,3.73-18.8l33.862-88.774a43.636,43.636,0,0,1,7.692-12.694Zm50.373,73.015V364.8H269.8V339.267Z" transform="translate(358.773 430.467)" fill="url(#linear-gradient)"/>
    <path id="Path_7" data-name="Path 7" d="M308.229,266.176a57.834,57.834,0,0,1,11.278-10.121,55.259,55.259,0,0,1,13.446-6.738,43.925,43.925,0,0,1,14.458-2.458,44.792,44.792,0,0,1,14.458,2.458,55.137,55.137,0,0,1,24.695,16.858A43.377,43.377,0,0,1,394,278.871l34.237,88.774a53.035,53.035,0,0,1,3.47,18.593,28.339,28.339,0,0,1-3.73,14.458,16.917,16.917,0,0,1-15.268,8.473H399.779V383.636h7.171a18.71,18.71,0,0,0-1.677-6.767l-34.093-88.89a22.439,22.439,0,0,0-3.788-5.783,33.247,33.247,0,0,0-5.783-5.176,29.673,29.673,0,0,0-7.113-3.7,21.078,21.078,0,0,0-7.171-1.388,19.925,19.925,0,0,0-7.113,1.388,32.1,32.1,0,0,0-6.94,3.7,38.971,38.971,0,0,0-5.783,5.176,23.652,23.652,0,0,0-4.019,5.783l-33.6,88.89a16.629,16.629,0,0,0-1.793,6.767h6.911V409.2H282.146a16.888,16.888,0,0,1-15.239-8.473,25.042,25.042,0,0,1-3.99-14.285,54.188,54.188,0,0,1,3.73-18.8l33.833-88.774A44.356,44.356,0,0,1,308.229,266.176ZM358.6,339.191v25.533H336.307V339.191Z" transform="translate(484.532 430.543)" fill="url(#linear-gradient)"/>
  </g>
</svg>
