<?xml version="1.0" encoding="utf-8"?>
<!-- Generator: Adobe Illustrator 22.1.0, SVG Export Plug-In . SVG Version: 6.00 Build 0)  -->
<svg version="1.1" id="Layer_1" xmlns="http://www.w3.org/2000/svg" xmlns:xlink="http://www.w3.org/1999/xlink" x="0px" y="0px"
	 viewBox="0 0 400 400" style="enable-background:new 0 0 400 400;" xml:space="preserve">
<path d="M13.3,121c0.5-30.8,9.5-58.5,29.5-82.3c2.9-3.4,5.9-6.9,9.2-9.8c8.3-7.4,16.7-14.6,25.4-21.6C90.5-3.2,104-2.3,116.1,9.5
	c15.4,15,25.7,33.5,36,51.9c4.1,7.4,6.9,15.7,8.8,24c3,13-0.9,24.8-10.6,33.9c-7.6,7.1-15.4,14.2-24,20.1
	c-16.7,11.6-19,26.1-12.6,44.2c5.8,16.4,15.6,30.5,26.3,44.1c14.4,18.3,29.8,35.8,48,50.5c9.7,7.8,19.9,14.9,32.4,17.8
	c11.2,2.6,20.8-0.5,29-8.4c7.9-7.6,15.8-15.2,24.2-22.3c14-11.9,29.6-12.6,45.4-4.1c7.9,4.2,15.5,9.2,22.3,14.9
	c11.2,9.3,21.8,19.2,32.4,29.2c3.6,3.4,6.4,7.8,8.9,12.1c6.4,11.3,5.6,22.6-3.7,31.6c-16.6,16-33.2,32.3-55.1,41.4
	c-19.7,8.1-40.1,11.1-61.3,9.2c-37.3-3.4-69.5-19.5-98.6-41.8c-50.2-38.4-90.8-85.4-122-140.3c-13-22.9-22.4-47.2-26.2-73.4
	C14.4,136.3,14,128.7,13.3,121z"/>
</svg>
