<svg id="Layer_1" data-name="Layer 1" xmlns="http://www.w3.org/2000/svg" viewBox="0 0 53 53"><defs><style>.cls-1{fill:#231f20;}</style></defs><title>02</title><path class="cls-1" d="M56.5,27a6.5,6.5,0,1,0-8,6.32V40a13.5,13.5,0,0,1-27,0V32.42A16.51,16.51,0,0,0,36.5,16V5A1.5,1.5,0,0,0,35,3.5H30a1.5,1.5,0,0,0,0,3h3.5V16a13.5,13.5,0,0,1-27,0V6.5H10a1.5,1.5,0,0,0,0-3H5A1.5,1.5,0,0,0,3.5,5V16a16.51,16.51,0,0,0,15,16.42V40a16.5,16.5,0,0,0,33,0V33.32A6.51,6.51,0,0,0,56.5,27ZM50,30.5A3.5,3.5,0,1,1,53.5,27,3.5,3.5,0,0,1,50,30.5Z" transform="translate(-3.5 -3.5)"/></svg>