<?xml version="1.0" encoding="utf-8"?>
<!-- Generator: Adobe Illustrator 22.1.0, SVG Export Plug-In . SVG Version: 6.00 Build 0)  -->
<svg version="1.1" id="Layer_1" xmlns="http://www.w3.org/2000/svg" xmlns:xlink="http://www.w3.org/1999/xlink" x="0px" y="0px"
	 viewBox="0 0 400 400" style="enable-background:new 0 0 400 400;" xml:space="preserve">
<style type="text/css">
	.st0{stroke:#231F20;stroke-width:0.75;stroke-miterlimit:10;}
</style>
<g>
	<path class="st0" d="M316,161.7v-31.8C316,58.2,257.8,0,186.2,0S56.3,58.2,56.3,129.8v22.9c0,27.7,8.3,54.2,24.1,76.9l0.6,0.9v66.8
		c0,2.4,2,4.4,4.4,4.4c2.4,0,4.4-2,4.4-4.4v-68.2c0-0.9-0.3-1.8-0.8-2.6c-15.7-21.6-23.9-47.1-23.9-73.8v-22.9
		c0-66.7,54.3-121.1,121.1-121.1s121.1,54.3,121.1,121.1v33c0,0.7,0.2,1.5,0.5,2.1l25.7,46.9c2,3.6,1.9,7.8-0.2,11.3
		c-2.1,3.5-5.7,5.6-9.8,5.6l-11.8-0.1c-1.2,0-2.3,0.5-3.1,1.3c-0.8,0.8-1.3,1.9-1.3,3.1v35.5c0,20.9-17,38-38,38h-23.9
		c-8.9,0-16.1,7.2-16.1,16.1v66.3L116.2,338c-0.6-0.3-1.2-0.4-1.8-0.4c-1.7,0-3.3,1-4,2.6c-1,2.2,0,4.8,2.2,5.8l119.3,53.6
		c1.3,0.6,3,0.5,4.2-0.3c1.3-0.8,2-2.2,2-3.7v-73.1c0-4,3.3-7.3,7.3-7.3h23.9c25.8,0,46.7-21,46.7-46.7v-31.1l7.4,0
		c7.3,0,13.8-3.7,17.4-9.9c3.7-6.2,3.8-13.7,0.4-20L316,161.7z"/>
	<path class="st0" d="M113.7,188.5l13.9,13.9c5.2,5.2,14,5.2,20.5,0.1l5.9-4.7l2,0.9c0.8,0.4,1.6,0.7,2.5,1l2,0.8l0.9,7.5
		c1,8.2,7.2,14.5,14.6,14.5h19.7c7.3,0,13.6-6.2,14.6-14.5l0.9-7.5l2-0.8c0.8-0.3,1.6-0.7,2.5-1l2-0.9l5.9,4.6
		c6.5,5.1,15.3,5.1,20.5-0.1l13.9-13.9c5.2-5.2,5.2-14,0.1-20.5l-4.6-5.9l0.8-2c0.4-0.8,0.7-1.6,1-2.5l0.8-2l7.4-0.9
		c8.2-1,14.5-7.2,14.5-14.6v-19.7c0-7.3-6.2-13.6-14.5-14.6L256,105l-0.8-2c-0.3-0.8-0.7-1.6-1-2.5l-0.9-2l4.6-5.9
		c5.1-6.5,5.1-15.3-0.1-20.5L244,58.3c-5.2-5.2-14-5.2-20.5-0.1l-5.9,4.6l-2-0.8c-0.8-0.4-1.6-0.7-2.5-1l-2-0.8l-0.9-7.5
		c-1-8.2-7.3-14.5-14.6-14.5H176c-7.3,0-13.6,6.2-14.6,14.5l-0.9,7.5l-2,0.8c-0.8,0.3-1.6,0.7-2.5,1l-2,0.8l-5.9-4.6
		c-6.5-5.1-15.4-5.1-20.5,0.1l-13.9,13.9c-5.2,5.2-5.2,14-0.1,20.5l4.6,5.9l-0.8,2c-0.4,0.8-0.7,1.6-1,2.5l-0.8,2l-7.4,0.9
		c-8.2,1-14.5,7.2-14.5,14.6v19.7c0,7.3,6.2,13.6,14.5,14.6l7.5,0.9l0.8,2c0.3,0.8,0.7,1.6,1,2.5l0.8,2l-4.6,5.9
		C108.5,174.5,108.5,183.3,113.7,188.5z M109.2,146.1c-3.8-0.5-6.7-3-6.7-5.9v-19.7c0-2.9,2.9-5.4,6.7-5.9l10.2-1.2
		c1.7-0.2,3.1-1.4,3.7-3c1.1-3.5,2.6-7,4.3-10.3c0.8-1.5,0.6-3.4-0.4-4.7l-6.4-8.1c-2.4-3-2.6-6.8-0.6-8.9l13.9-13.9
		c2-2,5.9-1.8,8.9,0.6l8.1,6.4c1.3,1.1,3.2,1.2,4.7,0.4c3.3-1.7,6.7-3.1,10.3-4.3c1.6-0.5,2.8-2,3-3.7l1.2-10.2
		c0.5-3.8,3-6.7,5.9-6.7h19.7c2.9,0,5.4,2.9,5.9,6.7l1.2,10.2c0.2,1.7,1.4,3.1,3,3.7c3.5,1.1,7,2.6,10.3,4.2
		c1.5,0.8,3.4,0.6,4.7-0.4l8.1-6.4c3-2.4,6.9-2.6,8.9-0.6l13.9,13.9c2,2,1.8,5.9-0.6,8.9l-6.4,8.1c-1.1,1.4-1.2,3.2-0.4,4.7
		c1.7,3.3,3.1,6.7,4.3,10.3c0.5,1.6,2,2.8,3.7,3l10.2,1.2c3.8,0.5,6.7,3,6.7,5.9v19.7c0,2.9-2.9,5.4-6.7,5.9l-10.2,1.2
		c-1.7,0.2-3.1,1.4-3.7,3c-1.1,3.5-2.6,7-4.3,10.3c-0.8,1.5-0.6,3.4,0.4,4.7l6.4,8.1c2.4,3,2.6,6.8,0.6,8.9l-13.9,13.9
		c-2,2-5.9,1.8-8.9-0.6l-8.1-6.4c-1.3-1.1-3.2-1.2-4.7-0.4c-3.3,1.7-6.7,3.1-10.3,4.3c-1.6,0.5-2.8,2-3,3.7l-1.2,10.2
		c-0.5,3.8-3,6.7-5.9,6.7H176c-2.9,0-5.4-2.9-5.9-6.7l-1.2-10.2c-0.2-1.7-1.4-3.1-3-3.7c-3.5-1.1-7-2.6-10.3-4.3
		c-1.5-0.8-3.4-0.6-4.7,0.4l-8.1,6.4c-3,2.4-6.8,2.6-8.9,0.6l-13.9-13.9c-2-2-1.8-5.9,0.6-8.9l6.4-8.1c1.1-1.3,1.2-3.2,0.4-4.7
		c-1.7-3.3-3.1-6.7-4.3-10.3c-0.5-1.6-2-2.8-3.7-3L109.2,146.1z"/>
	<path class="st0" d="M185.8,167c20.2,0,36.7-16.4,36.7-36.7S206,93.7,185.8,93.7s-36.7,16.4-36.7,36.7S165.6,167,185.8,167z
		 M185.8,102.5c15.4,0,27.9,12.5,27.9,27.9c0,15.4-12.5,27.9-27.9,27.9s-27.9-12.5-27.9-27.9S170.5,102.5,185.8,102.5z"/>
	<circle class="st0" cx="86.2" cy="328.4" r="4.4"/>
</g>
</svg>
