<?xml version="1.0" encoding="utf-8"?>
<!-- Generator: Adobe Illustrator 22.1.0, SVG Export Plug-In . SVG Version: 6.00 Build 0)  -->
<svg version="1.1" id="Layer_1" xmlns="http://www.w3.org/2000/svg" xmlns:xlink="http://www.w3.org/1999/xlink" x="0px" y="0px"
	 viewBox="0 0 400 400" style="enable-background:new 0 0 400 400;" xml:space="preserve">
<style type="text/css">
	.st0{fill:#231F20;}
</style>
<g>
	<g>
		<path class="st0" d="M113.3,207.2H7.2c-4,0-7.2-3.2-7.2-7.2s3.2-7.2,7.2-7.2h106c4,0,7.2,3.2,7.2,7.2S117.2,207.2,113.3,207.2z"/>
	</g>
	<g>
		<path class="st0" d="M392.8,207.2h-106c-4,0-7.2-3.2-7.2-7.2s3.2-7.2,7.2-7.2h106c4,0,7.2,3.2,7.2,7.2S396.8,207.2,392.8,207.2z"
			/>
	</g>
	<g>
		<path class="st0" d="M200,400c-4,0-7.2-3.2-7.2-7.2v-106c0-4,3.2-7.2,7.2-7.2s7.2,3.2,7.2,7.2v106C207.2,396.8,204,400,200,400z"
			/>
	</g>
	<g>
		<path class="st0" d="M200,120.5c-4,0-7.2-3.2-7.2-7.2V7.2c0-4,3.2-7.2,7.2-7.2s7.2,3.2,7.2,7.2v106
			C207.2,117.2,204,120.5,200,120.5z"/>
	</g>
	<g>
		<path class="st0" d="M45.8,147c-8,0-14.5-6.5-14.5-14.5V31.3h101.2c8,0,14.5,6.5,14.5,14.5s-6.5,14.5-14.5,14.5H60.2v72.3
			C60.2,140.5,53.8,147,45.8,147z"/>
	</g>
	<g>
		<path class="st0" d="M354.2,147c-8,0-14.5-6.5-14.5-14.5V60.2h-72.3c-8,0-14.5-6.5-14.5-14.5s6.5-14.5,14.5-14.5h101.2v101.2
			C368.7,140.5,362.2,147,354.2,147z"/>
	</g>
	<g>
		<path class="st0" d="M368.7,368.7H267.5c-8,0-14.5-6.5-14.5-14.5c0-8,6.5-14.5,14.5-14.5h72.3v-72.3c0-8,6.5-14.5,14.5-14.5
			c8,0,14.5,6.5,14.5,14.5V368.7z"/>
	</g>
	<g>
		<path class="st0" d="M132.5,368.7H31.3V267.5c0-8,6.5-14.5,14.5-14.5s14.5,6.5,14.5,14.5v72.3h72.3c8,0,14.5,6.5,14.5,14.5
			C147,362.2,140.5,368.7,132.5,368.7z"/>
	</g>
</g>
</svg>
