<?xml version="1.0" encoding="utf-8"?>
<!-- Generator: Adobe Illustrator 22.1.0, SVG Export Plug-In . SVG Version: 6.00 Build 0)  -->
<svg version="1.1" id="Layer_1" xmlns="http://www.w3.org/2000/svg" xmlns:xlink="http://www.w3.org/1999/xlink" x="0px" y="0px"
	 viewBox="0 0 400 400" style="enable-background:new 0 0 400 400;" xml:space="preserve">
<style type="text/css">
	.st0{fill:#231F20;}
</style>
<g>
	<g>
		<path class="st0" d="M220.2,359.5c-99.1,0-179.8-80.6-179.8-179.8S121.1,0,220.2,0S400,80.6,400,179.8S319.4,359.5,220.2,359.5z
			 M220.2,27.9C136.5,27.9,68.4,96,68.4,179.8s68.1,151.9,151.9,151.9s151.9-68.1,151.9-151.9S304,27.9,220.2,27.9z"/>
	</g>
	<g>
		<path class="st0" d="M14,400c-3.6,0-7.1-1.4-9.9-4.1c-5.5-5.5-5.5-14.3,0-19.7l89-89c5.5-5.5,14.3-5.5,19.7,0
			c5.5,5.5,5.5,14.3,0,19.7l-89,89C21.1,398.6,17.5,400,14,400z"/>
	</g>
</g>
</svg>
