<?xml version="1.0" encoding="utf-8"?>
<!-- Generator: Adobe Illustrator 22.1.0, SVG Export Plug-In . SVG Version: 6.00 Build 0)  -->
<svg version="1.1" id="Layer_1" xmlns="http://www.w3.org/2000/svg" xmlns:xlink="http://www.w3.org/1999/xlink" x="0px" y="0px"
	 viewBox="0 0 400 400" style="enable-background:new 0 0 400 400;" xml:space="preserve">
<g>
	<path d="M389.4,29.5c-8.1-6.5-19-8-28.5-4L7.6,173.8C3,175.7,0.1,180.1,0,185c-0.1,4.9,2.8,9.4,7.3,11.4l102.4,46.2l24.2,83.8
		c2.5,8.8,9.2,15.9,17.9,18.8c8.7,3,18.3,1.5,25.7-3.8l40.9-29.7l84.5,59.7c4.8,3.4,10.5,5.2,16.2,5.2c3.6,0,7.3-0.7,10.7-2.1
		c9-3.7,15.3-11.6,17-21.1l52.7-297C401.4,46.2,397.5,35.9,389.4,29.5z M322.6,349.1c-0.3,1.7-1.5,2.4-2.1,2.6
		c-0.7,0.3-2,0.6-3.4-0.4l-91.7-64.8c-2.1-1.5-4.6-2.3-7.1-2.3c-2.5,0-5.1,0.8-7.2,2.4l-48,34.9c-0.5,0.4-1,0.4-1.4,0.5l5.5-71
		l150.2-144.5c1.3-1.3-0.3-3.4-1.9-2.5L116.7,218.7l-73.5-33.1L370.5,48.2c1.6-0.6,2.8-0.1,3.5,0.5s1.6,1.7,1.3,3.4L322.6,349.1z"/>
</g>
</svg>
