<?xml version="1.0" encoding="utf-8"?>
<!-- Generator: Adobe Illustrator 22.1.0, SVG Export Plug-In . SVG Version: 6.00 Build 0)  -->
<svg version="1.1" id="Layer_1" xmlns="http://www.w3.org/2000/svg" xmlns:xlink="http://www.w3.org/1999/xlink" x="0px" y="0px"
	 viewBox="0 0 400 400" style="enable-background:new 0 0 400 400;" xml:space="preserve">
<g>
	<path d="M400,75.9c-14.7,6.5-30.5,10.9-47.1,12.9c17-10.1,30-26.2,36.1-45.4c-15.9,9.4-33.4,16.2-52.1,19.9
		c-15-15.9-36.3-25.9-59.9-25.9c-45.3,0-82.1,36.7-82.1,82.1c0,6.4,0.7,12.7,2.1,18.7c-68.2-3.4-128.7-36.1-169.2-85.7
		c-7.1,12.1-11.1,26.2-11.1,41.3c0,28.5,14.5,53.6,36.5,68.3c-13.4-0.4-26.1-4.1-37.2-10.3c0,0.3,0,0.7,0,1
		c0,39.8,28.3,72.9,65.8,80.5c-6.9,1.9-14.1,2.9-21.6,2.9c-5.3,0-10.4-0.5-15.4-1.5c10.5,32.6,40.8,56.3,76.7,57
		c-28.1,22-63.5,35.1-101.9,35.1c-6.6,0-13.2-0.4-19.6-1.2c36.3,23.3,79.5,36.9,125.8,36.9c151,0,233.5-125,233.5-233.5
		c0-3.6-0.1-7.1-0.2-10.6C375.1,106.9,389,92.4,400,75.9z"/>
</g>
</svg>
