<svg id="Layer_1" data-name="Layer 1" xmlns="http://www.w3.org/2000/svg" viewBox="0 0 53 53"><defs><style>.cls-1{fill:#231f20;}</style></defs><title>06</title><path class="cls-1" d="M51.85,45.36s0,0,0,0a2.1,2.1,0,0,0,.06-.24v0a.78.78,0,0,0,0-.26v0a1.24,1.24,0,0,0,0-.27v0a1.14,1.14,0,0,0-.09-.26v0a1.36,1.36,0,0,0-.13-.24h0a26.58,26.58,0,0,0-15.36-10.5,11.22,11.22,0,1,0-12.64,0A26.58,26.58,0,0,0,8.32,44l0,0a.41.41,0,0,0,0,.09.7.7,0,0,0-.09.17.31.31,0,0,0,0,.08.76.76,0,0,0-.06.2.22.22,0,0,1,0,.08,1.48,1.48,0,0,0,0,.21v.08a1.2,1.2,0,0,0,0,.2.44.44,0,0,0,0,.1l.06.18a.41.41,0,0,0,.05.09,1.4,1.4,0,0,0,.09.17l0,0a26.5,26.5,0,0,0,43.37,0s0,0,0,0l0-.09A1.51,1.51,0,0,0,51.85,45.36ZM21.78,24.19A8.22,8.22,0,1,1,30,32.41,8.23,8.23,0,0,1,21.78,24.19ZM30,53.94a23.54,23.54,0,0,1-18.58-9.13,23.49,23.49,0,0,1,37.16,0A23.54,23.54,0,0,1,30,53.94Z" transform="translate(-3.5 -3.94)"/><path class="cls-1" d="M30,3.94A26.53,26.53,0,0,0,3.5,30.44a1.5,1.5,0,0,0,3,0,23.5,23.5,0,0,1,47,0,1.5,1.5,0,0,0,3,0A26.53,26.53,0,0,0,30,3.94Z" transform="translate(-3.5 -3.94)"/></svg>