<?xml version="1.0" encoding="utf-8"?>
<!-- Generator: Adobe Illustrator 22.1.0, SVG Export Plug-In . SVG Version: 6.00 Build 0)  -->
<svg version="1.1" id="Layer_1" xmlns="http://www.w3.org/2000/svg" xmlns:xlink="http://www.w3.org/1999/xlink" x="0px" y="0px"
	 viewBox="0 0 400 400" style="enable-background:new 0 0 400 400;" xml:space="preserve">
<style type="text/css">
	.st0{stroke:#231F20;stroke-miterlimit:10;}
</style>
<path class="st0" d="M271.8,179l-43.4-17.4c-3.4-1.4-5.7-4.7-5.7-8.4v-1.9l1.9-0.7c39.7-7.2,54-30.1,54.6-31.1
	c0.9-1.4,0.6-3.3-0.5-4.5c0,0-2.8-2.9-5.6-8.5c-2.7-5.4-5.9-14.5-5.9-26.9V67c0-36.9-30.1-67-67-67s-67,30.1-67,67v12.7
	c0,9.7-1.9,18.6-5.7,26.3c-2.8,5.8-5.7,8.9-5.9,9c-1.2,1.2-1.5,3.1-0.6,4.5c0.6,1,14.8,23.9,54.6,31.1l1.9,0.3v1.9
	c0,4.1-2.2,7.4-5.7,8.7L128.2,179c-8.7,3.5-14.2,11.7-14.2,21v63.3c0,8.7,4.9,16.5,12.7,20.4l2,1l-0.9,2
	c-4.9,10.5-7.4,22.1-7.4,33.7c0,43.9,35.7,79.7,79.7,79.7s79.7-35.7,79.7-79.7c0-11.6-2.6-23.2-7.5-33.7l-0.9-2l2-1
	c7.9-3.9,12.7-11.7,12.7-20.4V200C286,190.7,280.4,182.4,271.8,179z M270.3,116.5l1,1.4l-1.1,1.3c-5.7,6.7-19.2,18.6-44.8,23.8
	l-2.7,0.5v-8.9l1.1-0.7c14.9-8.6,24.2-24.5,24.2-41.7V70.2l2.3,0c2.3,0,4.6-0.1,7-0.3l2.4-0.2v10
	C259.7,98.5,266.4,110.8,270.3,116.5z M140.7,60.4C144,30.2,169.5,7.3,200,7.3c30.2,0,55.7,22.6,59.2,52.7l0.3,2.3l-2.3,0.2
	c-40.2,3.3-73.5-23.4-73.9-23.7c-0.9-0.7-2-1-3.1-0.7c-1.1,0.2-2,0.9-2.5,1.9c-0.1,0.2-10.2,19.8-34.5,22.9l-2.8,0.4L140.7,60.4z
	 M174.6,143c-17.1-3.5-28.6-10.1-35.2-15c-4.6-3.4-7.8-6.7-9.6-8.8l-1.2-1.3l1-1.4c4-5.7,10.7-18,10.7-36.8v-9.1l2-0.2
	c20.9-1.9,33-14.4,38.4-21.6l1.3-1.7l1.8,1.2c9.8,6.7,29.9,18.3,54.8,21.2l2,0.2v22.6c0,22.4-18.2,40.7-40.7,40.7
	s-40.7-18.2-40.7-40.7v-3.4c0-2-1.6-3.7-3.7-3.7c-2,0-3.7,1.6-3.7,3.7v3.4c0,17.1,9.3,33.1,24.2,41.7l1.1,0.7v8.9L174.6,143z
	 M174.4,168.4c6.2-2.5,10.3-8.4,10.3-15.2v-15.3l2.8,0.8c8.2,2.2,16.8,2.2,25,0l2.8-0.8v15.3c0,6.7,4,12.7,10.3,15.2l8.6,3.4
	l-0.3,1.8c-2.5,16.6-17.1,29.1-33.9,29.1c-16.8,0-31.4-12.5-33.9-29.1l-0.3-1.8L174.4,168.4z M121.3,263.3l0-63.3
	c0-6.3,3.8-11.9,9.6-14.2l8.4-3.3v68.2c0,5.5,4.5,10,10,10h25.3c5,0,9,4,9,9c0,5-4,9-9,9h-38C128.2,278.7,121.3,271.8,121.3,263.3z
	 M278.7,263.3c0,8.5-6.9,15.3-15.3,15.3h-38c-5,0-9-4-9-9c0-5,4-9,9-9h25.3c5.5,0,10-4.5,10-10V219c0-2-1.6-3.7-3.7-3.7
	c-2,0-3.7,1.6-3.7,3.7v31.7c0,1.5-1.2,2.7-2.7,2.7h-25.3c-9,0-16.3,7.3-16.3,16.3c0,9,7.3,16.3,16.3,16.3h38.4l0.6,1.2
	c5.2,10.2,8,21.6,8,33.1c0,39.9-32.4,72.3-72.3,72.3s-72.3-32.4-72.3-72.3c0-11.5,2.8-22.9,8-33.1l0.6-1.2h38.4
	c9,0,16.3-7.3,16.3-16.3c0-9-7.3-16.3-16.3-16.3h-25.3c-1.5,0-2.7-1.2-2.7-2.7v-71.2l12.1-4.8l0.6,2.6c4.2,19,21.3,32.7,40.7,32.7
	c19.5,0,36.6-13.8,40.7-32.7l0.6-2.6l12.1,4.8v14.2c0,2,1.6,3.7,3.7,3.7c2,0,3.7-1.6,3.7-3.7v-11.2l8.4,3.3
	c5.9,2.3,9.6,7.9,9.6,14.2L278.7,263.3z"/>
</svg>
