<svg xmlns="http://www.w3.org/2000/svg" width="3700" height="775">
    <path fill="#FFF" fill-rule="evenodd" d="M3699.442 118.721v29.473c-.641 3.881-1.776 7.757-1.838 11.648-.269 16.875-.257 33.755-.292 50.633-.634 301.651-1.253-10.255-1.895 291.396-.109 51.557-.408 103.112-.423 154.668-.009 31.284.357 85.722.554 117.007H.589V700.81c29.033-4.383 58.462-7.156 87.033-13.426 121.356-26.636 230.055-78.507 327.024-152.01 30.804-23.349 58.283-50.581 88.246-74.978 112.711-91.776 245.239-137.39 392.162-147.035 55.921-3.671 111.946-1.039 167.712 6.5 88.683 11.991 173.878 35.455 256.695 67.14 109.565 41.918 211.904 96.563 309.414 159.391 47.124 30.364 96.986 55.587 149.853 75.479 111.257 41.864 226.01 59.212 345.396 43 85.706-11.64 164.429-40.842 237.276-84.655 89.615-53.897 163.97-123.432 225.858-204.335 57.069-74.605 121.149-142.44 197.354-199.716C2923.569 71.722 3078.672 6.451 3258.861 2.736c3.462-.072 6.898-1.247 10.346-1.907h11.68c8.625.846 17.254 1.663 25.875 2.543 32.092 3.277 64.485 4.936 96.217 10.172 92.906 15.331 179.946 46.865 262.933 88.841 11.085 5.606 22.349 10.898 33.53 16.336z" opacity=".2"/>
</svg>
