<svg xmlns="http://www.w3.org/2000/svg" width="84" height="83">
    <path fill="#35D6C1" fill-rule="evenodd" d="M70.572 49.519c-1.804-1.875-3.98-2.878-6.286-2.878-2.288 0-4.482.984-6.36 2.859l-5.877 5.85c-.484-.26-.967-.501-1.432-.743-.67-.334-1.302-.65-1.841-.984-5.505-3.491-10.507-8.041-15.305-13.927-2.325-2.934-3.887-5.404-5.022-7.911 1.525-1.392 2.939-2.841 4.315-4.234.521-.52 1.041-1.058 1.562-1.578 3.905-3.9 3.905-8.951 0-12.85l-5.077-5.07a75.738 75.738 0 0 1-1.73-1.764c-1.115-1.151-2.287-2.339-3.496-3.454-1.804-1.782-3.961-2.729-6.23-2.729-2.269 0-4.463.947-6.323 2.729l-.037.037-6.323 6.37c-2.38 2.377-3.738 5.274-4.035 8.635-.447 5.422 1.152 10.473 2.38 13.778 3.013 8.115 7.513 15.636 14.227 23.695 8.145 9.712 17.946 17.381 29.141 22.785 4.278 2.024 9.987 4.419 16.366 4.828.39.018.799.037 1.171.037 4.296 0 7.904-1.541 10.731-4.605.018-.037.055-.056.074-.093.967-1.17 2.083-2.228 3.254-3.361.8-.762 1.618-1.56 2.418-2.396 1.841-1.912 2.808-4.141 2.808-6.425 0-2.302-.985-4.512-2.864-6.369L70.572 49.519zm6.657 19.554c-.018 0-.018.018 0 0-.725.78-1.469 1.485-2.269 2.265-1.208 1.152-2.436 2.359-3.589 3.714-1.878 2.006-4.091 2.953-6.992 2.953-.279 0-.577 0-.856-.019-5.523-.353-10.656-2.507-14.505-4.345-10.526-5.088-19.769-12.312-27.45-21.466-6.341-7.632-10.581-14.689-13.389-22.265-1.73-4.624-2.362-8.227-2.083-11.625.186-2.173 1.023-3.974 2.566-5.515l6.342-6.332c.911-.854 1.878-1.319 2.826-1.319 1.172 0 2.12.706 2.716 1.3l.055.056c1.135 1.058 2.213 2.154 3.348 3.324.576.594 1.171 1.188 1.767 1.801l5.076 5.07c1.972 1.968 1.972 3.788 0 5.756-.539.539-1.06 1.077-1.599 1.597-1.562 1.597-3.05 3.083-4.668 4.531-.037.037-.074.056-.093.093-1.599 1.597-1.301 3.157-.967 4.215l.056.167c1.32 3.194 3.18 6.203 6.007 9.787l.019.018c5.132 6.314 10.544 11.235 16.514 15.004.762.483 1.543.873 2.287 1.244.67.335 1.302.65 1.841.985.075.037.149.092.223.13.633.315 1.228.464 1.842.464 1.543 0 2.51-.966 2.826-1.282l6.36-6.35c.633-.632 1.637-1.393 2.809-1.393 1.153 0 2.101.724 2.677 1.356l.038.037 10.247 10.232c1.915 1.894 1.915 3.843.018 5.812z"/>
</svg>
