<svg xmlns="http://www.w3.org/2000/svg" width="81" height="67">
    <path fill="#13D2F3" fill-rule="evenodd" d="M40.947 12.246c-13.537-.135-23.075-1.01-24.354 14.481H.076C.076 3.18 20.518.006 40.515.006c19.994 0 40.439 3.174 40.439 26.721H64.306C63.15 11.528 54.6 12.381 40.947 12.246zm-24.278 16.41c0 .715-.058 1.332-.159 1.877-.75 4.006-4.124 3.762-8.179 3.762-4.604 0-8.337.323-8.337-5.639h16.675zm6.519-4.058V22.23c0-1.059 1.215-1.126 2.714-1.126h2.452c1.498 0 2.713.067 2.713 1.126V25.854h17.335V22.23c0-1.059 1.215-1.126 2.714-1.126h2.45c1.499 0 2.715.067 2.715 1.126v4.436c3.95 4.122 16.869 21.662 17.334 23.724v14.246a2.372 2.372 0 0 1-2.364 2.375H8.218a2.372 2.372 0 0 1-2.364-2.375l-.006-14.174c.469-2.127 13.392-19.674 17.34-23.796v-2.068zm25.935 27.77a2.302 2.302 0 0 0 2.298-2.308 2.301 2.301 0 0 0-2.298-2.307 2.301 2.301 0 0 0-2.297 2.307 2.301 2.301 0 0 0 2.297 2.308zm0-7.915a2.302 2.302 0 0 0 2.298-2.307 2.302 2.302 0 0 0-2.298-2.309 2.302 2.302 0 0 0-2.297 2.309 2.302 2.302 0 0 0 2.297 2.307zm0-7.914a2.302 2.302 0 0 0 2.298-2.308 2.303 2.303 0 0 0-2.298-2.309 2.303 2.303 0 0 0-2.297 2.309 2.302 2.302 0 0 0 2.297 2.308zm-9.455 15.829a2.302 2.302 0 0 0 2.298-2.308 2.301 2.301 0 0 0-2.298-2.307 2.301 2.301 0 0 0-2.297 2.307 2.301 2.301 0 0 0 2.297 2.308zm0-7.915a2.302 2.302 0 0 0 2.298-2.307 2.302 2.302 0 0 0-2.298-2.309 2.302 2.302 0 0 0-2.297 2.309 2.302 2.302 0 0 0 2.297 2.307zm0-7.914a2.302 2.302 0 0 0 2.298-2.308 2.303 2.303 0 0 0-2.298-2.309 2.303 2.303 0 0 0-2.297 2.309 2.302 2.302 0 0 0 2.297 2.308zm-9.455 15.829a2.302 2.302 0 0 0 2.298-2.308 2.302 2.302 0 0 0-2.298-2.307 2.302 2.302 0 0 0-2.297 2.307 2.302 2.302 0 0 0 2.297 2.308zm0-7.915a2.303 2.303 0 0 0 2.298-2.307 2.303 2.303 0 0 0-2.298-2.309 2.303 2.303 0 0 0-2.297 2.309 2.302 2.302 0 0 0 2.297 2.307zm0-7.914a2.303 2.303 0 0 0 2.298-2.308 2.304 2.304 0 0 0-2.298-2.309 2.304 2.304 0 0 0-2.297 2.309 2.303 2.303 0 0 0 2.297 2.308zm34.221-6.006a9.068 9.068 0 0 1-.176-1.877h16.753c0 5.648-3.749 5.341-8.377 5.341-4.039 0-7.409.23-8.2-3.464z"/>
</svg>
