<?xml version="1.0" encoding="utf-8"?>
<!-- Generator: Adobe Illustrator 22.1.0, SVG Export Plug-In . SVG Version: 6.00 Build 0)  -->
<svg version="1.1" id="Layer_1" xmlns="http://www.w3.org/2000/svg" xmlns:xlink="http://www.w3.org/1999/xlink" x="0px" y="0px"
	 viewBox="0 0 400 400" style="enable-background:new 0 0 400 400;" xml:space="preserve">
<style type="text/css">
	.st0{fill:#231F20;}
</style>
<g>
	<path class="st0" d="M200,401c-65,0-126.2-31.8-163.6-85c-4.4-6.3-2.9-15,3.4-19.4c6.3-4.4,15-2.9,19.4,3.4
		c32.2,45.8,84.9,73.1,140.8,73.1c55.9,0,108.6-27.4,140.8-73.2c4.4-6.3,13.1-7.8,19.4-3.4c6.3,4.4,7.8,13.1,3.4,19.4
		C326.2,369.2,265,401,200,401z"/>
</g>
<g>
	<path class="st0" d="M386,215c-7.7,0-14-6.2-14-14c0-94.9-77.2-172.1-172.1-172.1S27.9,106.1,27.9,201c0,7.7-6.2,14-14,14
		s-14-6.2-14-14C0,90.7,89.7,1,200,1s200,89.7,200,200C400,208.7,393.8,215,386,215z"/>
</g>
<g>
	<path class="st0" d="M47.8,321.9c-2.8,0-5.6-0.8-8-2.5c-6.3-4.4-7.8-13.1-3.4-19.4c37.5-53.2,98.6-85,163.6-85
		c65,0,126.2,31.8,163.6,85c4.4,6.3,2.9,15-3.4,19.4c-6.3,4.4-15,2.9-19.4-3.4c-32.2-45.8-84.9-73.1-140.8-73.1
		c-55.9,0-108.6,27.3-140.8,73.1C56.5,319.9,52.1,321.9,47.8,321.9z"/>
</g>
<g>
	<path class="st0" d="M200,240.8c-47.6,0-86.3-38.7-86.3-86.3c0-47.6,38.7-86.3,86.3-86.3s86.3,38.7,86.3,86.3
		C286.3,202.1,247.6,240.8,200,240.8z M200,96.1c-32.2,0-58.4,26.2-58.4,58.4c0,32.2,26.2,58.4,58.4,58.4s58.4-26.2,58.4-58.4
		C258.4,122.3,232.2,96.1,200,96.1z"/>
</g>
</svg>
