<?xml version="1.0" encoding="utf-8"?>
<!-- Generator: Adobe Illustrator 22.1.0, SVG Export Plug-In . SVG Version: 6.00 Build 0)  -->
<svg version="1.1" id="Layer_1" xmlns="http://www.w3.org/2000/svg" xmlns:xlink="http://www.w3.org/1999/xlink" x="0px" y="0px"
	 viewBox="0 0 400 400" style="enable-background:new 0 0 400 400;" xml:space="preserve">
<style type="text/css">
	.st0{fill:#231F20;}
</style>
<g>
	<g>
		<path class="st0" d="M41.9,400c-3.5,0-6.9-1.3-9.5-3.8c-4.5-4.2-5.7-10.9-3-16.4l93-186c2.4-4.7,7.2-7.7,12.5-7.7h223.3
			c6.3,0,11.8,4.2,13.5,10.3c1.7,6.1-1,12.5-6.4,15.7l-316.3,186C46.7,399.4,44.3,400,41.9,400z M143.5,214L75.4,350.1L306.9,214
			H143.5z"/>
	</g>
	<g>
		<path class="st0" d="M358.1,214H134.9c-5.3,0-10.1-3-12.5-7.7l-93-186c-2.8-5.5-1.6-12.2,3-16.4c4.5-4.2,11.3-5,16.6-1.8
			l316.3,186c5.4,3.2,8,9.6,6.4,15.7C370,209.7,364.4,214,358.1,214z M143.5,186h163.4L75.4,49.9L143.5,186z"/>
	</g>
</g>
</svg>
