<?xml version="1.0" encoding="utf-8"?>
<!-- Generator: Adobe Illustrator 22.1.0, SVG Export Plug-In . SVG Version: 6.00 Build 0)  -->
<svg version="1.1" id="Layer_1" xmlns="http://www.w3.org/2000/svg" xmlns:xlink="http://www.w3.org/1999/xlink" x="0px" y="0px"
	 viewBox="0 0 400 400" style="enable-background:new 0 0 400 400;" xml:space="preserve">
<style type="text/css">
	.st0{fill:#231F20;}
</style>
<g>
	<path class="st0" d="M269.4,400c-4.2,0-8.4-0.2-12.7-0.6c-33.9-3.1-66.3-16.7-99-41.7c-47.6-36.4-87-81.7-117.1-134.7
		c-13.7-24.1-22.5-48.7-26.1-73.2c-0.7-5.1-1.2-10.3-1.6-15.4l-0.5-6.6c0-0.5-0.1-1-0.1-1.5c0.6-33,10.9-61.7,30.7-85.3
		c3.1-3.7,6.4-7.4,10-10.6C61,23.4,69,16.5,77.2,9.9c17.7-14.2,38.1-13.1,54.5,2.9c16,15.6,26.6,34.7,35.9,51.5
		c4.1,7.3,7.3,16,9.6,25.9c3.9,16.8-1,32.8-13.9,44.9c-6.7,6.4-14.9,13.7-23.9,20c-8,5.5-11.4,11.2-6.5,25c4.9,13.9,13.6,26,22.2,37
		c10.6,13.4,24.9,30.6,42.5,44.8c7.3,5.9,15.3,11.6,24.5,13.8c5.5,1.3,9.7,0,14.2-4.3c7.9-7.5,15.3-14.7,23.1-21.3
		c17-14.5,37.5-16.4,57.8-5.5c8.3,4.5,16.1,9.7,23.1,15.4c11.1,9.2,21.4,18.8,30.8,27.8c4.9,4.7,8.3,10.2,10.7,14.4
		c9.4,16.4,7.2,33.8-5.9,46.4c-16.7,16.2-33.1,32-55.7,41.3C304,396.6,286.9,400,269.4,400z M40.3,126.2l0.5,6.2
		c0.3,4.5,0.7,9,1.3,13.5c3.1,21.4,10.6,42.1,22.7,63.4c28.3,49.7,65.3,92.2,109.8,126.3c28.4,21.7,56,33.5,84.5,36.1
		c17.7,1.6,34.2-0.8,50.4-7.5c17.6-7.3,31.4-20.6,46-34.7c3.4-3.3,5.8-6.5,1.9-13.3c-1.4-2.4-3.5-5.9-5.8-8.1
		c-9.1-8.7-18.9-17.9-29.3-26.5c-5.5-4.6-11.8-8.7-18.5-12.3c-10.2-5.5-18.4-4.8-26.6,2.2c-7.4,6.3-14.4,13-21.4,19.7
		c-11.8,11.3-25.6,15.2-40.3,11.8c-14.7-3.4-26.3-11.7-35.7-19.3c-19.7-15.9-35.4-34.6-46.8-49.2c-9.7-12.3-20.4-27.2-26.6-45
		c-8.5-24.2-2.8-43.5,17-57.2c7.5-5.2,14.7-11.7,20.7-17.4c5.6-5.3,7.5-11.2,5.8-18.3c-1.7-7.3-4-13.6-6.8-18.7
		c-8.8-15.9-17.9-32.4-31-45.1c-6.2-6.1-11-6.4-17.6-1.1c-7.9,6.3-15.5,13-23.1,19.7c-2.6,2.3-4.9,5-7.1,7.6
		C48.8,77.7,40.9,99.6,40.3,126.2z"/>
</g>
</svg>
