<?xml version="1.0" encoding="utf-8"?>
<!-- Generator: Adobe Illustrator 22.1.0, SVG Export Plug-In . SVG Version: 6.00 Build 0)  -->
<svg version="1.1" id="Layer_1" xmlns="http://www.w3.org/2000/svg" xmlns:xlink="http://www.w3.org/1999/xlink" x="0px" y="0px"
	 viewBox="0 0 400 400" style="enable-background:new 0 0 400 400;" xml:space="preserve">
<style type="text/css">
	.st0{fill:#231F20;}
</style>
<g>
	<path class="st0" d="M128.9,221.4C59.6,221.4,3.3,165.1,3.3,95.8V0h51.2c7.7,0,14,6.2,14,14s-6.2,14-14,14H31.2v67.9
		c0,53.9,43.8,97.7,97.7,97.7s97.7-43.8,97.7-97.7V27.9h-23.3c-7.7,0-14-6.2-14-14s6.2-14,14-14h51.2v95.8
		C254.5,165.1,198.1,221.4,128.9,221.4z"/>
</g>
<g>
	<path class="st0" d="M240.5,400c-69.2,0-125.6-56.3-125.6-125.6v-67c0-7.7,6.2-14,14-14s14,6.2,14,14v67
		c0,53.9,43.8,97.7,97.7,97.7s97.7-43.8,97.7-97.7v-52.1c0-7.7,6.2-14,14-14s14,6.2,14,14v52.1C366.1,343.7,309.8,400,240.5,400z"/>
</g>
<g>
	<path class="st0" d="M352.1,221.9c-24.4,0-44.2-19.8-44.2-44.2s19.8-44.2,44.2-44.2c24.4,0,44.2,19.8,44.2,44.2
		S376.5,221.9,352.1,221.9z M352.1,147.4c-16.7,0-30.2,13.6-30.2,30.2s13.6,30.2,30.2,30.2c16.7,0,30.2-13.6,30.2-30.2
		S368.8,147.4,352.1,147.4z"/>
</g>
</svg>
