<?xml version="1.0" encoding="utf-8"?>
<!-- Generator: Adobe Illustrator 22.1.0, SVG Export Plug-In . SVG Version: 6.00 Build 0)  -->
<svg version="1.1" id="Layer_1" xmlns="http://www.w3.org/2000/svg" xmlns:xlink="http://www.w3.org/1999/xlink" x="0px" y="0px"
	 viewBox="0 0 400 400" style="enable-background:new 0 0 400 400;" xml:space="preserve">
<style type="text/css">
	.st0{fill:#231F20;}
</style>
<g>
	<g>
		<path class="st0" d="M200,400C89.7,400,0,310.3,0,200S89.7,0,200,0s200,89.7,200,200c0,7.7-6.2,14-14,14s-14-6.2-14-14
			c0-94.9-77.2-172.1-172.1-172.1S27.9,105.1,27.9,200S105.1,372.1,200,372.1c68.4,0,130.4-40.5,157.8-103.3
			c3.1-7.1,11.3-10.3,18.4-7.2c7.1,3.1,10.3,11.3,7.2,18.4C351.5,352.9,279.5,400,200,400z"/>
	</g>
	<g>
		<path class="st0" d="M386,214H125.6c-5.6,0-10.7-3.4-12.9-8.6s-1-11.2,3-15.2l55.8-55.8c5.5-5.5,14.3-5.5,19.7,0
			c5.5,5.5,5.5,14.3,0,19.7l-32,32H386c7.7,0,14,6.2,14,14S393.8,214,386,214z"/>
	</g>
	<g>
		<path class="st0" d="M181.4,269.8c-3.6,0-7.1-1.4-9.9-4.1l-55.8-55.8c-5.5-5.5-5.5-14.3,0-19.7s14.3-5.5,19.7,0l55.8,55.8
			c5.5,5.5,5.5,14.3,0,19.7C188.5,268.4,185,269.8,181.4,269.8z"/>
	</g>
</g>
</svg>
