<?xml version="1.0" encoding="utf-8"?>
<!-- Generator: Adobe Illustrator 22.1.0, SVG Export Plug-In . SVG Version: 6.00 Build 0)  -->
<svg version="1.1" id="Layer_1" xmlns="http://www.w3.org/2000/svg" xmlns:xlink="http://www.w3.org/1999/xlink" x="0px" y="0px"
	 viewBox="0 0 400 400" style="enable-background:new 0 0 400 400;" xml:space="preserve">
<style type="text/css">
	.st0{fill:#231F20;}
</style>
<g>
	<g>
		<path class="st0" d="M293,400H144.2c-59,0-107-48-107-107V107c0-59,48-107,107-107H293c59,0,107,48,107,107v186
			C400,352,352,400,293,400z M144.2,27.9c-43.6,0-79.1,35.5-79.1,79.1v186c0,43.6,35.5,79.1,79.1,79.1H293
			c43.6,0,79.1-35.5,79.1-79.1V107c0-43.6-35.5-79.1-79.1-79.1H144.2z"/>
	</g>
	<g>
		<path class="st0" d="M218.6,299.1c-31.8,0-61.8-15.6-80.1-41.6c-2.2-3.2-1.5-7.5,1.7-9.7c3.2-2.2,7.5-1.5,9.7,1.7
			c15.7,22.3,41.4,35.7,68.7,35.7s53-13.3,68.7-35.7c2.2-3.2,6.5-3.9,9.7-1.7c3.2,2.2,3.9,6.6,1.7,9.7
			C280.4,283.5,250.4,299.1,218.6,299.1z"/>
	</g>
	<g>
		<path class="st0" d="M144.2,260.4c-1.4,0-2.8-0.4-4-1.3c-3.2-2.2-3.9-6.6-1.7-9.7c18.4-26.1,48.3-41.6,80.1-41.6
			s61.8,15.6,80.1,41.6c2.2,3.2,1.5,7.5-1.7,9.7c-3.1,2.3-7.5,1.5-9.7-1.7c-15.7-22.3-41.4-35.7-68.7-35.7s-53,13.3-68.7,35.7
			C148.5,259.4,146.4,260.4,144.2,260.4z"/>
	</g>
	<g>
		<path class="st0" d="M219.1,187.5c-24.1,0-43.7-19.6-43.7-43.7c0-24.1,19.6-43.7,43.7-43.7c24.1,0,43.7,19.6,43.7,43.7
			C262.8,167.9,243.2,187.5,219.1,187.5z M219.1,114c-16.4,0-29.8,13.4-29.8,29.8s13.4,29.8,29.8,29.8s29.8-13.4,29.8-29.8
			S235.5,114,219.1,114z"/>
	</g>
	<g>
		<path class="st0" d="M41.5,214H14c-7.7,0-14-6.2-14-14s6.2-14,14-14h27.6c7.7,0,14,6.2,14,14S49.2,214,41.5,214z"/>
	</g>
	<g>
		<path class="st0" d="M41.5,120.9H14c-7.7,0-14-6.2-14-14s6.2-14,14-14h27.6c7.7,0,14,6.2,14,14S49.2,120.9,41.5,120.9z"/>
	</g>
	<g>
		<path class="st0" d="M41.5,307H14c-7.7,0-14-6.2-14-14s6.2-14,14-14h27.6c7.7,0,14,6.2,14,14S49.2,307,41.5,307z"/>
	</g>
</g>
</svg>
