<?xml version="1.0" encoding="utf-8"?>
<!-- Generator: Adobe Illustrator 22.1.0, SVG Export Plug-In . SVG Version: 6.00 Build 0)  -->
<svg version="1.1" id="Layer_1" xmlns="http://www.w3.org/2000/svg" xmlns:xlink="http://www.w3.org/1999/xlink" x="0px" y="0px"
	 viewBox="0 0 400 400" style="enable-background:new 0 0 400 400;" xml:space="preserve">
<style type="text/css">
	.st0{fill:#231F20;}
</style>
<g>
	<g>
		<path class="st0" d="M200,400C89.7,400,0,310.3,0,200S89.7,0,200,0s200,89.7,200,200S310.3,400,200,400z M200,27.9
			c-94.9,0-172.1,77.2-172.1,172.1S105.1,372.1,200,372.1S372.1,294.9,372.1,200S294.9,27.9,200,27.9z"/>
	</g>
	<g>
		<path class="st0" d="M265.1,160.5c-24.4,0-44.2-19.8-44.2-44.2s19.8-44.2,44.2-44.2s44.2,19.8,44.2,44.2S289.5,160.5,265.1,160.5z
			 M265.1,86c-16.7,0-30.2,13.6-30.2,30.2s13.6,30.2,30.2,30.2s30.2-13.6,30.2-30.2S281.8,86,265.1,86z"/>
	</g>
	<g>
		<path class="st0" d="M265.1,327.9c-24.4,0-44.2-19.8-44.2-44.2c0-24.4,19.8-44.2,44.2-44.2s44.2,19.8,44.2,44.2
			C309.3,308.1,289.5,327.9,265.1,327.9z M265.1,253.5c-16.7,0-30.2,13.6-30.2,30.2c0,16.7,13.6,30.2,30.2,30.2s30.2-13.6,30.2-30.2
			C295.3,267.1,281.8,253.5,265.1,253.5z"/>
	</g>
	<g>
		<path class="st0" d="M107,244.2c-24.4,0-44.2-19.8-44.2-44.2s19.8-44.2,44.2-44.2s44.2,19.8,44.2,44.2S131.3,244.2,107,244.2z
			 M107,169.8c-16.7,0-30.2,13.6-30.2,30.2s13.6,30.2,30.2,30.2s30.2-13.6,30.2-30.2S123.6,169.8,107,169.8z"/>
	</g>
	<g>
		<path class="st0" d="M367.4,120.9h-65.1c-2.6,0-4.7-2.1-4.7-4.7c0-2.6,2.1-4.7,4.7-4.7h65.1c2.6,0,4.7,2.1,4.7,4.7
			C372.1,118.8,370,120.9,367.4,120.9z"/>
	</g>
	<g>
		<path class="st0" d="M367.4,288.4h-65.1c-2.6,0-4.7-2.1-4.7-4.7c0-2.6,2.1-4.7,4.7-4.7h65.1c2.6,0,4.7,2.1,4.7,4.7
			C372.1,286.3,370,288.4,367.4,288.4z"/>
	</g>
	<g>
		<path class="st0" d="M200,120.9H41.9c-2.6,0-4.7-2.1-4.7-4.7c0-2.6,2.1-4.7,4.7-4.7H200c2.6,0,4.7,2.1,4.7,4.7
			C204.7,118.8,202.6,120.9,200,120.9z"/>
	</g>
	<g>
		<path class="st0" d="M69.8,204.7H23.3c-2.6,0-4.7-2.1-4.7-4.7s2.1-4.7,4.7-4.7h46.5c2.6,0,4.7,2.1,4.7,4.7S72.3,204.7,69.8,204.7z
			"/>
	</g>
	<g>
		<path class="st0" d="M227.9,288.4h-186c-2.6,0-4.7-2.1-4.7-4.7c0-2.6,2.1-4.7,4.7-4.7h186c2.6,0,4.7,2.1,4.7,4.7
			C232.6,286.3,230.5,288.4,227.9,288.4z"/>
	</g>
	<g>
		<path class="st0" d="M386,204.7H144.2c-2.6,0-4.7-2.1-4.7-4.7s2.1-4.7,4.7-4.7H386c2.6,0,4.7,2.1,4.7,4.7S388.6,204.7,386,204.7z"
			/>
	</g>
	<g>
		<path class="st0" d="M190.7,400c-2.6,0-4.7-2.1-4.7-4.7V386c0-2.6,2.1-4.7,4.7-4.7s4.7,2.1,4.7,4.7v9.3
			C195.3,397.9,193.3,400,190.7,400z"/>
	</g>
	<g>
		<path class="st0" d="M200,390.7c-2.6,0-4.7-2.1-4.7-4.7V4.7c0-2.6,2.1-4.7,4.7-4.7s4.7,2.1,4.7,4.7V386
			C204.7,388.6,202.6,390.7,200,390.7z"/>
	</g>
	<g>
		<path class="st0" d="M200,390.6c-1.7,0-3.3-0.9-4.1-2.5c-1.2-2.3-0.3-5.1,2-6.3c21.9-11.4,41.2-33.2,55.7-62.9
			c1.1-2.3,3.9-3.2,6.2-2.1c2.3,1.1,3.3,3.9,2.1,6.2c-15.4,31.5-36.1,54.7-59.8,67.1C201.5,390.4,200.7,390.6,200,390.6z"/>
	</g>
	<g>
		<path class="st0" d="M283.7,251.2c-0.2,0-0.5,0-0.7-0.1c-2.5-0.4-4.3-2.8-3.9-5.3c2.3-14.9,3.4-30.3,3.4-45.8s-1.1-30.9-3.4-45.8
			c-0.4-2.5,1.4-4.9,3.9-5.3c2.5-0.4,4.9,1.4,5.3,3.9c2.3,15.4,3.5,31.3,3.5,47.2s-1.2,31.8-3.5,47.2
			C288,249.5,286,251.2,283.7,251.2z"/>
	</g>
	<g>
		<path class="st0" d="M257.8,83.7c-1.7,0-3.4-1-4.2-2.6c-14.6-29.8-33.9-51.6-56-63c-2.3-1.2-3.2-4-2-6.3c1.2-2.3,4-3.2,6.3-2
			c23.8,12.3,44.6,35.6,60.1,67.2c1.1,2.3,0.2,5.1-2.1,6.2C259.1,83.6,258.5,83.7,257.8,83.7z"/>
	</g>
	<g>
		<path class="st0" d="M200,390.6c-0.7,0-1.5-0.2-2.2-0.5c-43.3-22.6-75.5-80.9-84-152.3c-0.3-2.6,1.5-4.9,4.1-5.2
			c2.5-0.4,4.9,1.5,5.2,4.1c8.2,68.3,38.5,124,79.1,145.1c2.3,1.2,3.2,4,2,6.3C203.3,389.7,201.7,390.6,200,390.6z"/>
	</g>
	<g>
		<path class="st0" d="M118.2,167.4c-0.2,0-0.4,0-0.6,0c-2.5-0.3-4.4-2.6-4.1-5.2c8.5-71.5,40.8-129.9,84.3-152.4
			c2.3-1.2,5.1-0.3,6.3,2c1.2,2.3,0.3,5.1-2,6.3c-40.7,21.1-71.1,76.8-79.3,145.3C122.5,165.7,120.5,167.4,118.2,167.4z"/>
	</g>
</g>
</svg>
