<?xml version="1.0" encoding="utf-8"?>
<!-- Generator: Adobe Illustrator 22.1.0, SVG Export Plug-In . SVG Version: 6.00 Build 0)  -->
<svg version="1.1" id="Layer_1" xmlns="http://www.w3.org/2000/svg" xmlns:xlink="http://www.w3.org/1999/xlink" x="0px" y="0px"
	 viewBox="0 0 400 400" style="enable-background:new 0 0 400 400;" xml:space="preserve">
<style type="text/css">
	.st0{fill:#231F20;}
</style>
<g>
	<g>
		<path class="st0" d="M386,400c-7.7,0-14-6.2-14-14V126.6H27.9V386c0,7.7-6.2,14-14,14s-14-6.2-14-14V112.7c0-7.7,6.2-14,14-14H386
			c7.7,0,14,6.2,14,14V386C400,393.8,393.8,400,386,400z"/>
	</g>
	<g>
		<path class="st0" d="M308.5,61.8c-7.7,0-14-6.2-14-14V27.9H105.4v19.9c0,7.7-6.2,14-14,14s-14-6.2-14-14V14c0-7.7,6.2-14,14-14
			h217c7.7,0,14,6.2,14,14v33.9C322.5,55.5,316.2,61.8,308.5,61.8z"/>
	</g>
	<g>
		<path class="st0" d="M293,232.6H107c-7.7,0-14-6.2-14-14c0-7.7,6.2-14,14-14h186c7.7,0,14,6.2,14,14
			C307,226.3,300.7,232.6,293,232.6z"/>
	</g>
	<g>
		<path class="st0" d="M293,325.6H107c-7.7,0-14-6.2-14-14s6.2-14,14-14h186c7.7,0,14,6.2,14,14S300.7,325.6,293,325.6z"/>
	</g>
</g>
</svg>
