<?xml version="1.0" encoding="utf-8"?>
<!-- Generator: Adobe Illustrator 22.1.0, SVG Export Plug-In . SVG Version: 6.00 Build 0)  -->
<svg version="1.1" id="Layer_1" xmlns="http://www.w3.org/2000/svg" xmlns:xlink="http://www.w3.org/1999/xlink" x="0px" y="0px"
	 viewBox="0 0 400 400" style="enable-background:new 0 0 400 400;" xml:space="preserve">
<style type="text/css">
	.st0{fill:#231F20;}
</style>
<g>
	<g>
		<path class="st0" d="M200,310.6c-78.4,0-152.2-38.3-197.4-102.5c-4.4-6.3-2.9-15,3.4-19.4c6.3-4.4,15-2.9,19.4,3.4
			c40,56.8,105.3,90.7,174.6,90.7c69.4,0,134.7-33.9,174.6-90.7c4.4-6.3,13.1-7.8,19.4-3.4s7.8,13.1,3.4,19.4
			C352.3,272.3,278.4,310.6,200,310.6z"/>
	</g>
	<g>
		<path class="st0" d="M13.9,213.9c-2.8,0-5.6-0.8-8-2.5c-6.3-4.4-7.8-13.1-3.4-19.4C47.7,127.7,121.6,89.4,200,89.4
			c78.4,0,152.2,38.3,197.4,102.5c4.4,6.3,2.9,15-3.4,19.4c-6.3,4.4-15,2.9-19.4-3.4c-40-56.8-105.3-90.7-174.6-90.7
			c-69.4,0-134.6,33.9-174.6,90.7C22.6,211.9,18.3,213.9,13.9,213.9z"/>
	</g>
	<g>
		<path class="st0" d="M200,253.5c-29.5,0-53.5-24-53.5-53.5s24-53.5,53.5-53.5s53.5,24,53.5,53.5S229.5,253.5,200,253.5z
			 M200,160.5c-21.8,0-39.5,17.7-39.5,39.5s17.7,39.5,39.5,39.5s39.5-17.7,39.5-39.5S221.8,160.5,200,160.5z"/>
	</g>
</g>
</svg>
