<?xml version="1.0" encoding="utf-8"?>
<!-- Generator: Adobe Illustrator 22.1.0, SVG Export Plug-In . SVG Version: 6.00 Build 0)  -->
<svg version="1.1" id="Layer_1" xmlns="http://www.w3.org/2000/svg" xmlns:xlink="http://www.w3.org/1999/xlink" x="0px" y="0px"
	 viewBox="0 0 400 400" style="enable-background:new 0 0 400 400;" xml:space="preserve">
<style type="text/css">
	.st0{fill:#231F20;}
</style>
<g>
	<g>
		<g>
			<path class="st0" d="M182,382c-59.2,0-114.8-28.9-148.9-77.3c-4-5.7-2.7-13.7,3.1-17.7s13.6-2.7,17.7,3.1
				c29.3,41.7,77.2,66.6,128.1,66.6c50.9,0,98.8-24.9,128.2-66.6c4-5.7,12-7.1,17.7-3.1c5.7,4,7.1,12,3.1,17.7
				C296.9,353.1,241.2,382,182,382z"/>
		</g>
		<g>
			<path class="st0" d="M12.7,212.7C5.7,212.7,0,207,0,200C0,99.6,81.6,18,182,18c27.8,0,54.6,6.1,79.4,18.2
				c6.3,3.1,8.9,10.7,5.9,17c-3.1,6.3-10.7,8.9-17,5.9C229,48.7,206,43.4,182,43.4C95.7,43.4,25.4,113.6,25.4,200
				C25.4,207,19.7,212.7,12.7,212.7z"/>
		</g>
		<g>
			<path class="st0" d="M43.5,310.1c-2.5,0-5.1-0.8-7.3-2.3c-5.7-4-7.1-12-3.1-17.7c34.1-48.4,89.8-77.3,148.9-77.3
				c59.2,0,114.8,28.9,148.9,77.3c4,5.7,2.7,13.6-3.1,17.7c-5.7,4-13.6,2.7-17.7-3.1c-29.3-41.7-77.2-66.6-128.1-66.6
				c-50.9,0-98.8,24.9-128.2,66.6C51.4,308.2,47.5,310.1,43.5,310.1z"/>
		</g>
		<g>
			<path class="st0" d="M182,236.2c-43.3,0-78.5-35.2-78.5-78.5c0-43.3,35.2-78.5,78.5-78.5s78.5,35.2,78.5,78.5
				C260.5,201,225.3,236.2,182,236.2z M182,104.5c-29.3,0-53.1,23.8-53.1,53.1c0,29.3,23.8,53.1,53.1,53.1s53.1-23.8,53.1-53.1
				C235.2,128.4,211.3,104.5,182,104.5z"/>
		</g>
	</g>
	<g>
		<g>
			<path class="st0" d="M393.7,138.6H309c-3.5,0-6.3-2.8-6.3-6.3s2.8-6.3,6.3-6.3h84.7c3.5,0,6.3,2.8,6.3,6.3
				S397.2,138.6,393.7,138.6z"/>
		</g>
		<g>
			<path class="st0" d="M351.3,181c-3.5,0-6.3-2.8-6.3-6.3V89.9c0-3.5,2.8-6.3,6.3-6.3s6.3,2.8,6.3,6.3v84.7
				C357.7,178.1,354.8,181,351.3,181z"/>
		</g>
	</g>
</g>
</svg>
