<?xml version="1.0" encoding="utf-8"?>
<!-- Generator: Adobe Illustrator 22.1.0, SVG Export Plug-In . SVG Version: 6.00 Build 0)  -->
<svg version="1.1" id="Layer_1" xmlns="http://www.w3.org/2000/svg" xmlns:xlink="http://www.w3.org/1999/xlink" x="0px" y="0px"
	 viewBox="0 0 400 400" style="enable-background:new 0 0 400 400;" xml:space="preserve">
<style type="text/css">
	.st0{stroke:#231F20;stroke-miterlimit:10;}
</style>
<g>
	<path class="st0" d="M121,194.6c-6.2,0-11.2,5-11.2,11.2c0,6.2,5,11.2,11.2,11.2c6.2,0,11.2-5,11.2-11.2
		C132.2,199.6,127.1,194.6,121,194.6z"/>
	<path class="st0" d="M279,194.6c-6.2,0-11.2,5-11.2,11.2c0,6.2,5,11.2,11.2,11.2c6.2,0,11.2-5,11.2-11.2
		C290.3,199.6,285.2,194.6,279,194.6z"/>
	<path class="st0" d="M352.3,159.5l-3.2-0.6v-9.8C349.1,66.9,282.2,0,200,0S50.9,66.9,50.9,149.1v9.8l-3.2,0.6
		c-19.3,3.5-33.4,20.2-33.4,39.9c0,19.9,14.3,36.7,33.9,40l2.9,0.5l0.3,3c2.8,32.4,17.7,56.3,44,71.1c8.1,4.5,17.8,8.4,28.8,11.4
		l2.8,0.8V400h9.4v-71.6l4.5,0.8c17,3.1,36.9,4.7,59.1,4.7c20.2,0,38.6-1.3,54.8-4l4.4-0.7V400h9.4v-72.8l2.9-0.7
		c12.7-3.2,23.9-7.4,33.1-12.6c26.4-14.8,41.2-38.7,44-71.1l0.3-3l2.9-0.5c19.6-3.3,33.9-20.1,33.9-40
		C385.7,179.7,371.6,162.9,352.3,159.5z M50.9,232.1l-4.9-1.4c-13.9-4-23.7-16.8-23.7-31.3c0-14.5,9.7-27.3,23.7-31.3l4.9-1.4V232.1
		z M341.1,230.8c0,35.9-13.2,60.8-40.5,76.1c-22.7,12.8-55.6,19-100.7,19s-77.9-6.2-100.7-19c-27.2-15.3-40.5-40.2-40.5-76.1v-81.7
		c0-61.8,41.4-117.4,100.6-135.2l0.6-0.2l0.6,0c45.5,0.6,69.8,34,69.8,58c0,19.4-15.7,35.1-35.1,35.1c-15,0-27.3-12.2-27.3-27.3
		c0-11.6,9.4-21,21-21c2.2,0,4-1.8,4-4c0-2.2-1.8-4-4-4c-16,0-29,13-29,29c0,19.5,15.8,35.3,35.3,35.3c23.8,0,43.1-19.3,43.1-43.1
		c0-15.2-7.7-31.7-20.7-44c-5.1-4.9-11.1-9.1-17.6-12.5l-14.4-7.5L201.9,8c76.7,1,139.2,64.3,139.2,141.1V230.8z M354,230.7
		l-4.9,1.4v-65.4l4.9,1.4c13.9,4,23.7,16.8,23.7,31.3C377.7,213.9,367.9,226.7,354,230.7z"/>
	<path class="st0" d="M233,230.1c-8.8,8.8-20.5,13.7-33,13.7c-12.5,0-24.2-4.8-33-13.7c-0.8-0.8-1.8-1.2-2.8-1.2
		c-1,0-2.1,0.4-2.8,1.2c-0.8,0.8-1.2,1.8-1.2,2.8c0,1.1,0.4,2.1,1.2,2.8c10.3,10.3,24,16,38.7,16s28.4-5.7,38.7-16
		c1.6-1.6,1.6-4.1,0-5.7C237.1,228.5,234.6,228.5,233,230.1z"/>
</g>
</svg>
