<svg xmlns="http://www.w3.org/2000/svg" width="9305" height="992">
    <path fill="#FFF" fill-rule="evenodd" d="M9302.689 199.595c-.339 21.183-.323 42.37-.368 63.557-.798 378.636-1.576 143.717-2.383 522.354-.138 64.714-.513-11.806-.532 52.908-.012 39.269.449 101.691.697 140.96H4652.5v-77.593c36.52-5.501 73.535-32.136 109.473-40.007 152.644-33.431 289.369-98.541 411.338-190.804 38.747-29.309 73.31-63.491 110.998-94.115 141.77-115.198 308.468-172.453 493.27-184.56 70.338-4.608 140.807-1.303 210.952 8.161 111.548 15.049 218.707 44.502 322.877 84.273 137.813 52.617 266.537 121.209 389.187 200.07 59.274 38.113 121.991 69.773 188.489 94.743 139.941 52.548 284.28 74.324 434.446 53.974 107.804-14.609 206.823-51.266 298.451-106.26 112.72-67.652 206.246-154.932 284.09-256.486 71.783-93.644 152.384-178.792 248.236-250.687C8329.09 88.985 8524.183 7.058 8750.829 2.393c4.353-.089 8.675-1.563 13.012-2.392h14.692c10.848 1.062 21.702 2.087 32.546 3.192 40.366 4.111 81.11 6.194 121.024 12.768 116.859 19.243 226.34 58.825 330.723 111.513 13.943 7.038 28.11 13.68 42.174 20.506v36.994c-.806 4.873-2.233 9.738-2.311 14.621zM5.594 838.414c-.019-64.714-.395 11.806-.532-52.908-.807-378.637-1.585-143.718-2.383-522.354-.045-21.187-.029-42.374-.368-63.557-.078-4.883-1.505-9.748-2.311-14.621V147.98c14.064-6.826 28.231-13.468 42.174-20.506 104.383-52.688 213.864-92.27 330.723-111.513 39.914-6.574 80.658-8.657 121.024-12.768 10.844-1.105 21.697-2.13 32.546-3.192h14.692c4.337.829 8.659 2.303 13.013 2.392 226.645 4.665 421.738 86.592 596.521 217.69 95.852 71.895 176.453 157.043 248.236 250.687 77.845 101.554 171.37 188.834 284.09 256.486 91.628 54.994 190.647 91.651 298.451 106.26 150.166 20.35 294.504-1.426 434.446-53.974 66.498-24.97 129.215-56.63 188.489-94.743 122.65-78.861 251.374-147.453 389.187-200.07 104.17-39.771 211.329-69.224 322.877-84.273 70.145-9.464 140.614-12.769 210.952-8.161 184.803 12.107 351.5 69.362 493.27 184.56 37.688 30.624 72.252 64.806 110.997 94.115 121.97 92.263 258.695 157.373 411.34 190.804 35.937 7.871 72.952 34.506 109.472 40.007v77.593H4.897c.249-39.269.709-101.691.697-140.96z" opacity=".2"/>
</svg>
